<?xml version="1.0" encoding="UTF-8"?>
<svg width="24px" height="22px" viewBox="0 0 24 22" version="1.1" xmlns="http://www.w3.org/2000/svg" xmlns:xlink="http://www.w3.org/1999/xlink">
    <!-- Generator: Sketch 52.5 (67469) - http://www.bohemiancoding.com/sketch -->
    <title>ic_amount</title>
    <desc>Created with Sketch.</desc>
    <g id="Page-1" stroke="none" stroke-width="1" fill="none" fill-rule="evenodd">
        <g id="09_Create_Wallet" transform="translate(-44.000000, -449.000000)" fill="#7B7B7B" fill-rule="nonzero">
            <g id="form" transform="translate(16.000000, 258.000000)">
                <g id="amount" transform="translate(28.000000, 188.000000)">
                    <path d="M23.9956,10.3333333 C23.956,9.63625926 23.142,9.09155556 21.514,8.676 C21.5688,8.55377778 21.5996,8.42666667 21.6,8.29466667 L21.6,5.44444444 L21.5932,5.44444444 C21.45,3.07007407 11.8972,3 10.8,3 C9.7028,3 0.15,3.07007407 0.0068,5.44444444 L0,5.44444444 L0,5.49740741 L0,8.29588889 C0.002,9.06996296 0.9828,9.67577778 2.442,10.1267778 C2.422,10.1944074 2.41,10.2632593 2.406,10.3333333 L2.4,10.3333333 L2.4,10.3862963 L2.4,13.1798889 C0.828,13.5921852 0.0428,14.1291481 0.004,14.8148148 L0,14.8148148 L0,14.8677778 L0,17.6662593 C0.0012,18.2052593 0.4784,18.6623704 1.2592,19.0432963 C1.2296,19.126 1.2112,19.2103333 1.206,19.2967037 L1.2,19.2967037 L1.2,19.3496667 L1.2,22.1481481 C1.2032,23.5031852 4.1988,24.3444815 7.5272,24.7372222 C7.5516,24.7421111 7.574,24.7522963 7.6,24.7522963 C7.6076,24.7522963 7.614,24.7482222 7.6216,24.7478148 C8.2632,24.8215556 8.9152,24.879 9.5604,24.9201481 C9.574,24.9217778 9.586,24.9282963 9.6,24.9282963 C9.6076,24.9282963 9.6136,24.9242222 9.6208,24.9238148 C10.44,24.9743333 11.246,25 12,25 C12.754,25 13.56,24.9743333 14.3792,24.9234074 C14.3864,24.9238148 14.3928,24.9278889 14.4,24.9278889 C14.414,24.9278889 14.426,24.920963 14.4396,24.9197407 C15.0848,24.8785926 15.7368,24.8215556 16.3784,24.7474074 C16.386,24.7474074 16.3924,24.7514815 16.4,24.7514815 C16.426,24.7514815 16.4484,24.7412963 16.4728,24.7364074 C19.8012,24.3436667 22.7964,23.501963 22.8,22.1465185 L22.8,19.2962963 L22.7936,19.2962963 C22.7656,18.7968148 22.3476,18.380037 21.522,18.0317037 C21.5724,17.913963 21.6,17.7917407 21.6,17.665037 L21.6,15.0022222 C23.036,14.5524444 23.998,13.9507037 24,13.1835556 L24,10.3333333 L23.9956,10.3333333 Z M20.7568,17.7974444 L20.6204,17.9192593 C20.4104,18.1078889 20.0604,18.2981481 19.6,18.4814815 L19.6,16.538963 C20.0756,16.3702963 20.4804,16.1832963 20.8,15.9783704 L20.8,17.6642222 C20.8,17.7061852 20.7848,17.751 20.7568,17.7974444 Z M11.8104,19.6906667 C11.752,19.6922963 11.6932,19.6931111 11.6344,19.6943333 C11.4916,19.6971852 11.3452,19.698 11.2004,19.6992222 L11.2004,17.6642222 C11.3104,17.663 11.4204,17.6613704 11.5304,17.6593333 C11.5516,17.6589259 11.5728,17.6585185 11.594,17.6581111 C11.9968,17.6503704 12.3996,17.6377407 12.8004,17.619 L12.8004,19.6531852 C12.7148,19.6576667 12.6288,19.6617407 12.542,19.6654074 C12.3012,19.6764074 12.058,19.6845556 11.8104,19.6906667 Z M10.0636,19.6963704 C9.8804,19.6931111 9.698,19.6886296 9.5168,19.6829259 C9.4944,19.6821111 9.472,19.6812963 9.4496,19.6804815 C9.2316,19.6731481 9.0152,19.6637778 8.8004,19.6531852 L8.8004,17.6194074 C9.2012,17.6385556 9.604,17.6511852 10.0068,17.6585185 C10.028,17.6589259 10.0492,17.6593333 10.07,17.6597407 C10.18,17.6617778 10.29,17.6634074 10.4,17.6646296 L10.4,19.7008519 C10.3224,19.700037 10.2448,19.700037 10.1676,19.6988148 C10.1324,19.698 10.0984,19.6967778 10.0636,19.6963704 Z M2.8388,18.7674815 C2.8256,18.7634074 2.8132,18.7597407 2.8,18.7560741 L2.8,16.7878889 C3.1736,16.8905556 3.5752,16.9842593 4,17.0694074 L4,19.057963 C3.6328,18.9785185 3.294,18.895 2.9856,18.8094444 C2.9368,18.7951852 2.8864,18.7817407 2.8388,18.7674815 Z M11.27,22.1412222 C11.38,22.1432593 11.49,22.1448889 11.6,22.1461111 L11.6,24.1827407 C11.0472,24.1774444 10.5136,24.1611481 10,24.1354815 L10,22.1012963 C10.4008,22.1204444 10.8036,22.1330741 11.2064,22.1404074 C11.2276,22.1404074 11.2488,22.1408148 11.27,22.1412222 Z M12.7936,22.14 C13.1964,22.1322593 13.5992,22.1196296 14,22.1008889 L14,24.1350741 C13.4864,24.1607407 12.9528,24.177037 12.4,24.1823333 L12.4,22.1457037 C12.51,22.1444815 12.62,22.1428519 12.73,22.1408148 C12.7512,22.1408148 12.7724,22.1404074 12.7936,22.14 Z M16,21.9558519 L16,23.979037 C15.6156,24.0201852 15.2156,24.0564444 14.8,24.0861852 L14.8,22.0544444 C15.2056,22.0275556 15.6064,21.9945556 16,21.9558519 Z M16.8,21.8678519 C17.2124,21.8173333 17.6128,21.7598889 18,21.6959259 L18,23.6962963 C17.6232,23.7639259 17.2228,23.8262593 16.8,23.8828889 L16.8,21.8678519 Z M18.8,21.5504815 C19.2248,21.4653333 19.6264,21.3716296 20,21.268963 L20,23.2371481 C19.6436,23.3418519 19.2424,23.4432963 18.8,23.539037 L18.8,21.5504815 Z M5.2,21.5504815 L5.2,23.539037 C4.7576,23.4432963 4.3564,23.3418519 4,23.2371481 L4,21.268963 C4.3736,21.3716296 4.7752,21.4657407 5.2,21.5504815 Z M6,21.6963333 C6.3872,21.7602963 6.7876,21.8177407 7.2,21.8682593 L7.2,23.8832963 C6.7772,23.8266667 6.3768,23.7643333 6,23.6967037 L6,21.6963333 Z M8,21.9558519 C8.3936,21.9945556 8.7944,22.0275556 9.2,22.0548519 L9.2,24.0865926 C8.7844,24.0568519 8.3844,24.0205926 8,23.9794444 L8,21.9558519 Z M7.0076,19.5195556 C6.9668,19.5154815 6.9264,19.511 6.886,19.5069259 C6.8572,19.5040741 6.8288,19.5004074 6.8,19.4975556 L6.8,17.4747778 C7.1936,17.5134815 7.5944,17.5464815 8,17.5737778 L8,19.6038889 C7.664,19.5794444 7.332,19.5517407 7.0076,19.5195556 Z M6,17.3863704 L6,19.4014074 C5.5772,19.3447778 5.1768,19.2824444 4.8,19.2148148 L4.8,17.2144444 C5.1872,17.2784074 5.5876,17.3362593 6,17.3863704 Z M13.8664,19.5847407 C13.7784,19.5916667 13.6896,19.5985926 13.6,19.6051111 L13.6,17.5733704 C14.0056,17.5460741 14.4064,17.5134815 14.8,17.4743704 L14.8,19.4975556 C14.5528,19.524037 14.3,19.5488889 14.0404,19.5704815 C13.9824,19.5757778 13.9244,19.5802593 13.8664,19.5847407 Z M15.6,19.4014074 L15.6,17.3863704 C16.0124,17.3358519 16.4128,17.2784074 16.8,17.2144444 L16.8,19.2148148 C16.4232,19.2824444 16.0228,19.3451852 15.6,19.4014074 Z M17.6,17.069 C18.0248,16.9838519 18.4264,16.8901481 18.8,16.7874815 L18.8,18.7556667 C18.4436,18.8603704 18.0424,18.9618148 17.6,19.0575556 L17.6,17.069 Z M12.13,15.207963 C11.8292,15.2002222 11.5352,15.1884074 11.2464,15.1741481 C11.2308,15.1733333 11.2152,15.1725185 11.2,15.1721111 L11.2,13.1379259 C11.6008,13.1570741 12.0036,13.1697037 12.4064,13.177037 C12.4276,13.1774444 12.4488,13.1778519 12.4696,13.1782593 C12.5796,13.1802963 12.6896,13.1819259 12.7996,13.1831481 L12.7996,15.2173333 C12.6048,15.2152963 12.4084,15.2144815 12.2184,15.21 C12.1892,15.2091852 12.1592,15.2087778 12.13,15.207963 Z M2.8,9.3857037 L2.8,7.41751852 C3.1736,7.52018519 3.5752,7.61388889 4,7.69903704 L4,9.68759259 C3.9508,9.677 3.9,9.66640741 3.852,9.65581481 C3.6392,9.60814815 3.4316,9.55844444 3.2332,9.50588889 C3.082,9.46637037 2.9384,9.42603704 2.8,9.3857037 Z M10.07,8.28937037 C10.18,8.29140741 10.29,8.29303704 10.4,8.29425926 L10.4,10.3284444 C9.8616,10.3231481 9.3264,10.3088889 8.8,10.282 L8.8,8.24944444 C9.2008,8.26859259 9.6036,8.28122222 10.0064,8.28855556 C10.0276,8.28855556 10.0488,8.28896296 10.07,8.28937037 Z M11.5936,8.28814815 C11.9964,8.28040741 12.3992,8.26777778 12.8,8.24903704 L12.8,10.2815926 C12.732,10.2848519 12.6668,10.2897407 12.5984,10.293 C12.5928,10.2934074 12.5872,10.2934074 12.5812,10.2938148 C12.3128,10.306037 12.0392,10.315 11.762,10.3215185 C11.7188,10.3227407 11.6756,10.3231481 11.6324,10.3243704 C11.49,10.3272222 11.3444,10.3276296 11.2,10.3292593 L11.2,8.29425926 C11.31,8.29303704 11.42,8.29140741 11.53,8.28937037 C11.5512,8.28896296 11.5724,8.28855556 11.5936,8.28814815 Z M20.7084,8.49266667 L20.6972,8.49022222 L20.5516,8.60551852 C20.3404,8.77296296 20.016,8.94244444 19.6,9.10622222 L19.6,7.16818519 C20.0756,6.99951852 20.4804,6.81251852 20.8,6.60759259 L20.8,8.29344444 C20.8,8.35537037 20.768,8.42218519 20.7084,8.49266667 Z M15.6,10.0285926 L15.6,8.016 C16.0124,7.96548148 16.4128,7.90803704 16.8,7.84407407 L16.8,9.84118519 C16.4208,9.90962963 16.0216,9.97237037 15.6,10.0285926 Z M17.6,9.68433333 L17.6,7.69903704 C18.0248,7.61388889 18.4264,7.52018519 18.8,7.41751852 L18.8,9.38122222 C18.4416,9.48755556 18.038,9.589 17.6,9.68433333 Z M14.8,8.104 L14.8,10.1247407 C14.4136,10.1662963 14.0136,10.2025556 13.6,10.2327037 L13.6,8.203 C14.0056,8.1757037 14.4064,8.1427037 14.8,8.104 Z M6.8,10.1255556 L6.8,8.104 C7.1936,8.1427037 7.5944,8.1757037 8,8.203 L8,10.2310741 C7.5928,10.2013333 7.1912,10.1675185 6.8,10.1255556 Z M6,8.016 L6,10.029 C5.9208,10.0184074 5.8384,10.0098519 5.76,9.99885185 C5.7088,9.99151852 5.66,9.98377778 5.6096,9.97644444 C5.3784,9.94262963 5.1524,9.90637037 4.9308,9.86848148 C4.8864,9.86074074 4.8436,9.85259259 4.8,9.84485185 L4.8,7.84448148 C5.1872,7.90803704 5.5876,7.96588889 6,8.016 Z M10.3008,15.1158889 C10.2468,15.1118148 10.1924,15.1077407 10.1388,15.1036667 C9.8828,15.0832963 9.6328,15.0608889 9.3888,15.036037 C9.3364,15.0307407 9.284,15.025037 9.232,15.0197407 C9.2212,15.0185185 9.2108,15.0168889 9.2,15.0160741 L9.2,12.9928889 C9.5936,13.0315926 9.9944,13.0645926 10.4,13.0918889 L10.4,15.1224074 C10.3676,15.119963 10.3332,15.1183333 10.3008,15.1158889 Z M7.658,14.8115556 C7.4996,14.7858889 7.3508,14.7581852 7.2,14.7312963 L7.2,12.7333704 C7.5872,12.7973333 7.9876,12.8547778 8.4,12.9052963 L8.4,14.9203333 C8.1552,14.8873333 7.9156,14.8531111 7.6856,14.8164444 C7.6764,14.8144074 7.6672,14.8127778 7.658,14.8115556 Z M6.4,12.5875185 L6.4,14.5728148 C5.958,14.4762593 5.5572,14.3735926 5.2,14.2668519 L5.2,12.306 C5.5736,12.4086667 5.9752,12.5027778 6.4,12.5875185 Z M4.4,12.0570741 L4.4,13.9926667 C3.7712,13.7453704 3.3656,13.4927778 3.2336,13.2678889 L3.2068,13.2222593 C3.2044,13.2096296 3.2004,13.1961852 3.2,13.1835556 L3.2,11.4964815 C3.5196,11.7014074 3.9244,11.8884074 4.4,12.0570741 Z M13.9936,13.177037 C14.3964,13.1692963 14.7992,13.1566667 15.2,13.1379259 L15.2,15.1700741 C14.6744,15.1965556 14.14,15.2112222 13.6,15.2169259 L13.6,13.1831481 C13.71,13.1819259 13.82,13.1802963 13.93,13.1782593 C13.9512,13.1778519 13.9724,13.1774444 13.9936,13.177037 Z M19.1628,14.7402593 C18.9872,14.7712222 18.81,14.8017778 18.628,14.8298889 C18.5236,14.8461852 18.4168,14.8616667 18.3096,14.8771481 C18.2084,14.8918148 18.1032,14.9044444 18.0004,14.9178889 L18.0004,12.9048889 C18.4128,12.8543704 18.8132,12.7969259 19.2004,12.732963 L19.2004,14.7333333 C19.1876,14.7357778 19.1752,14.7382222 19.1628,14.7402593 Z M16.4544,15.0881852 C16.3052,15.1008148 16.1512,15.108963 16,15.119963 L16,13.0918889 C16.4056,13.0645926 16.8064,13.032 17.2,12.9928889 L17.2,15.014037 C16.9676,15.0388889 16.7356,15.0637407 16.4968,15.0841111 C16.4824,15.0853333 16.4688,15.086963 16.4544,15.0881852 Z M21.0256,14.3242963 C20.8264,14.3809259 20.6156,14.4338889 20.4004,14.4856296 C20.3008,14.5092593 20.1992,14.5328889 20.0952,14.5557037 C20.0644,14.5626296 20.0316,14.5687407 20.0004,14.5756667 L20.0004,12.5879259 C20.4252,12.5027778 20.8268,12.4090741 21.2004,12.3064074 L21.2004,14.2745926 C21.1428,14.2908889 21.0848,14.3075926 21.0256,14.3242963 Z M23.1956,10.3598148 C23.1588,10.6364444 22.5432,11.0043333 21.4444,11.3502222 C20.0292,11.7955185 17.8148,12.2033333 15.0084,12.3296296 C14.8648,12.3357407 14.7216,12.3418519 14.5752,12.3467407 C14.4556,12.3508148 14.3356,12.3544815 14.2136,12.3577407 C13.8824,12.3650741 13.5464,12.3703704 13.2,12.3703704 C12.8536,12.3703704 12.5176,12.3650741 12.1864,12.3573333 C12.0648,12.3544815 11.9448,12.3504074 11.8248,12.3463333 C11.678,12.3418519 11.5348,12.3353333 11.3916,12.3292222 C8.5852,12.2029259 6.3704,11.7951111 4.9556,11.3498148 C3.8656,11.0067778 3.2512,10.6417407 3.2056,10.3663333 C3.2076,10.3585926 3.2076,10.3520741 3.2124,10.3422963 C3.2396,10.3492222 3.27,10.3549259 3.2976,10.3618519 C3.454,10.3997407 3.6144,10.4364074 3.7776,10.4714444 C4.5724,10.6458148 5.4532,10.7888148 6.3916,10.898 C6.3948,10.898 6.3972,10.8996296 6.4,10.8996296 C6.4008,10.8996296 6.4016,10.8992222 6.402,10.8992222 C7.0412,10.9733704 7.7044,11.0316296 8.3852,11.0727778 C8.3904,11.0727778 8.3948,11.0756296 8.4,11.0756296 C8.4028,11.0756296 8.4048,11.074 8.4076,11.074 C8.8976,11.1033333 9.394,11.1249259 9.8964,11.1363333 C10.204,11.1440741 10.506,11.1481481 10.8,11.1481481 C11.01,11.1481481 11.2252,11.1457037 11.4424,11.1416296 C14.3488,11.096 17.0424,10.744 18.9168,10.1984815 C19.0032,10.1736296 19.0876,10.147963 19.1708,10.1222963 C19.2216,10.1064074 19.2736,10.0909259 19.3228,10.075037 C19.4676,10.0277778 19.6064,9.9792963 19.7404,9.92877778 C19.7636,9.91981481 19.7856,9.91085185 19.8088,9.90188889 C19.922,9.8582963 20.0308,9.81307407 20.1348,9.76703704 C20.1648,9.75359259 20.1956,9.74055556 20.2248,9.72711111 C20.3356,9.67618519 20.4428,9.62403704 20.542,9.56985185 C20.5868,9.54581481 20.6256,9.52096296 20.6676,9.49651852 C20.7156,9.46840741 20.7636,9.43988889 20.808,9.41096296 C20.8332,9.39466667 20.8632,9.37918519 20.8872,9.36288889 C22.678,9.75848148 23.15,10.1911481 23.1956,10.3598148 Z M10.8,3.81481481 C17.3956,3.81481481 20.7316,4.87244444 20.794,5.47948148 C20.7456,5.75488889 20.1316,6.1187037 19.0444,6.46092593 C17.6292,6.90622222 15.4148,7.31403704 12.6084,7.44033333 C12.4648,7.44644444 12.3216,7.45255556 12.1752,7.45744444 C12.0556,7.46151852 11.9356,7.46518519 11.8136,7.46844444 C11.4824,7.47618519 11.1464,7.48148148 10.8,7.48148148 C10.4536,7.48148148 10.1176,7.47618519 9.7864,7.46844444 C9.6648,7.46559259 9.5448,7.46151852 9.4248,7.45744444 C9.278,7.45296296 9.1348,7.44644444 8.9916,7.44033333 C6.1852,7.31403704 3.9704,6.90622222 2.5556,6.46092593 C1.468,6.1187037 0.8544,5.75488889 0.806,5.47948148 C0.8684,4.87244444 4.2044,3.81481481 10.8,3.81481481 Z M0.8,8.29466667 L0.8,6.60759259 C1.1196,6.81251852 1.5244,6.99951852 2,7.16818519 L2,9.11885185 C1.222,8.82185185 0.8008,8.52403704 0.8,8.29466667 Z M2.7376,13.9327778 C2.7436,13.9392963 2.7528,13.945 2.7588,13.9515185 C3.3064,14.5145556 4.4404,14.957 5.852,15.287 C5.8844,15.2947407 5.9188,15.3020741 5.9516,15.3098148 C6.0552,15.3334444 6.1604,15.3566667 6.2668,15.3790741 C7.5632,15.6601852 9.1108,15.8634815 10.7968,15.9641111 C10.798,15.9641111 10.7988,15.9645185 10.7996,15.9645185 C10.8004,15.9645185 10.8008,15.9641111 10.8012,15.9641111 C11.3428,15.9962963 11.8968,16.0187037 12.4624,16.0284815 C12.7128,16.0337778 12.9592,16.037037 13.2,16.037037 C13.476,16.037037 13.7592,16.0337778 14.0472,16.0268519 C14.5704,16.0158519 15.086,15.9938519 15.5944,15.9637037 C15.5964,15.9637037 15.598,15.9649259 15.6,15.9649259 C15.6036,15.9649259 15.6064,15.9628889 15.61,15.9628889 C17.3004,15.8614444 18.8864,15.6561111 20.2276,15.3607407 C19.9372,15.5155556 19.5396,15.6756667 19.0444,15.8317037 C17.5504,16.3018519 15.1644,16.730037 12.132,16.8294444 C12.042,16.8322963 11.9532,16.8355556 11.862,16.838 C11.764,16.8404444 11.6644,16.8420741 11.5648,16.8441111 C11.3132,16.8481852 11.06,16.8518519 10.8,16.8518519 C10.4536,16.8518519 10.1176,16.8465556 9.7864,16.8388148 C9.6648,16.835963 9.5448,16.8318889 9.4248,16.8278148 C9.278,16.8233333 9.1348,16.8168148 8.9916,16.8107037 C6.1852,16.6844074 3.9704,16.2765926 2.5556,15.8312963 C1.4556,15.485 0.84,15.1167037 0.8044,14.8400741 C0.8488,14.6868889 1.2532,14.3035185 2.7376,13.9327778 Z M0.8,17.665037 L0.8,15.977963 C1.1196,16.1828889 1.5244,16.3698889 2,16.5385556 L2,18.4814815 L1.7716,18.391037 L1.7668,18.3959259 C1.1388,18.1307037 0.8008,17.8703704 0.8,17.665037 Z M2,22.1465185 L2,20.4594444 C2.3196,20.6643704 2.7244,20.8513704 3.2,21.020037 L3.2,22.9707037 C2.422,22.6737037 2.0008,22.3758889 2,22.1465185 Z M20.8,22.9707037 L20.8,21.0204444 C21.2756,20.8517778 21.6804,20.6647778 22,20.4598519 L22,22.1457037 C21.9996,22.3750741 21.578,22.6732963 20.8,22.9707037 Z M21.9948,19.3276667 C21.9512,19.6034815 21.3368,19.9693333 20.2444,20.3131852 C18.8292,20.7584815 16.6148,21.1662963 13.8084,21.2925926 C13.6648,21.2987037 13.5216,21.3048148 13.3752,21.3097037 C13.2556,21.3137778 13.1356,21.3174444 13.0136,21.3207037 C12.6824,21.328037 12.3464,21.3333333 12,21.3333333 C11.6536,21.3333333 11.3172,21.328037 10.9856,21.3202963 C10.8652,21.3174444 10.7464,21.3133704 10.6276,21.3092963 C10.48,21.3044074 10.336,21.2982963 10.1916,21.2921852 C7.3852,21.1658889 5.1708,20.7580741 3.7556,20.3127778 C2.6976,19.9799259 2.0864,19.6262963 2.0096,19.3533333 C2.1288,19.3957037 2.2524,19.4368519 2.3792,19.4771852 C2.392,19.4812593 2.4048,19.4853333 2.4176,19.489 C2.5256,19.5228148 2.636,19.5554074 2.7492,19.5871852 C2.792,19.5994074 2.8352,19.6116296 2.8788,19.6234444 C2.9428,19.640963 3.0084,19.6576667 3.074,19.6747778 C4.5308,20.0548889 6.3904,20.3241852 8.398,20.4451852 C8.3988,20.4451852 8.3992,20.4455926 8.4,20.4455926 C8.4004,20.4455926 8.4008,20.4451852 8.4012,20.4451852 C9.0212,20.4826667 9.6544,20.5058889 10.2944,20.5136296 C10.4648,20.5168889 10.634,20.5185185 10.8,20.5185185 C11.0204,20.5185185 11.246,20.5156667 11.4744,20.5115926 C12.058,20.5018148 12.634,20.4798148 13.1972,20.4455926 C13.1984,20.4455926 13.1992,20.4464074 13.2004,20.4464074 C13.2024,20.4464074 13.2036,20.4451852 13.2056,20.4451852 C13.8916,20.4032222 14.5556,20.3433333 15.1936,20.2687778 C15.196,20.2687778 15.198,20.27 15.2004,20.27 C15.2092,20.27 15.2164,20.2655185 15.2252,20.2647037 C15.9356,20.1811852 16.6092,20.0785185 17.2344,19.9591481 C17.3632,19.9351111 17.49,19.9102593 17.6156,19.8845926 C17.6436,19.8788889 17.6716,19.8731852 17.6996,19.8670741 C18.8808,19.6201852 19.9032,19.3003704 20.6048,18.903963 C20.6432,18.8827778 20.6792,18.8607778 20.7156,18.8391852 C20.76,18.8122963 20.8024,18.785 20.8436,18.7572963 C20.882,18.732037 20.9264,18.7075926 20.9616,18.6819259 C21.7512,18.9687407 21.9688,19.2254074 21.9948,19.3276667 Z M22,14.0077407 L22,12.0574815 C22.4756,11.8888148 22.8804,11.7018148 23.2,11.4968889 L23.2,13.1827407 C23.1996,13.4121111 22.778,13.7103333 22,14.0077407 Z" id="ic_amount"></path>
                </g>
            </g>
        </g>
    </g>
</svg>