<?xml version="1.0" encoding="UTF-8"?>
<svg width="28px" height="28px" viewBox="0 0 28 28" version="1.1" xmlns="http://www.w3.org/2000/svg" xmlns:xlink="http://www.w3.org/1999/xlink">
    <!-- Generator: Sketch 52.5 (67469) - http://www.bohemiancoding.com/sketch -->
    <title>ic_bank</title>
    <desc>Created with Sketch.</desc>
    <g id="Page-1" stroke="none" stroke-width="1" fill="none" fill-rule="evenodd">
        <g id="27_List-Wallet" transform="translate(-36.000000, -562.000000)" fill="#3E82FE" fill-rule="nonzero">
            <g id="Group" transform="translate(16.000000, 536.000000)">
                <path d="M47.1540954,50.7557114 C48.6962252,48.0469901 48.0687967,44.621864 45.6665983,42.6357273 L45.6665983,38.8323831 L46.2499487,38.8323831 C46.5721122,38.8323831 46.8332992,38.5711962 46.8332992,38.2490327 L46.8332992,36.4990361 L47.4166496,36.4990361 C47.738813,36.4982705 47.9993438,36.236482 47.9985781,35.9143185 C47.9981406,35.7241705 47.9050627,35.546163 47.7490942,35.4373898 L34.332472,26.1040564 C34.1325349,25.9653145 33.8674104,25.9653145 33.6674733,26.1040564 L20.2508511,35.4373898 C19.9866563,35.6217957 19.9220158,35.9854121 20.106367,36.2496069 C20.2151949,36.4055207 20.3932024,36.4985986 20.5833504,36.4990361 L21.1667008,36.4990361 L21.1667008,38.2490327 C21.1667008,38.5711962 21.4278878,38.8323831 21.7500513,38.8323831 L22.3334017,38.8323831 L22.3334017,48.1657165 L21.7499966,48.1657165 C21.4278331,48.1657165 21.1666462,48.4269035 21.1666462,48.7490669 L21.1666462,50.6040633 C20.4691631,50.8506487 20.0020781,51.5091943 20,52.2490054 L20,53.4156515 C20,53.737815 20.261187,53.999002 20.5833504,53.999002 L47.4166496,53.999002 C47.738813,53.999002 48,53.737815 48,53.4156515 L48,52.2490054 C47.9981953,51.637655 47.6775631,51.0715311 47.1540954,50.7557114 Z M45.6665983,37.665737 L40.999959,37.665737 L40.999959,36.4990908 L45.6665983,36.4990908 L45.6665983,37.665737 Z M44.4999521,38.8323831 L44.4999521,41.8715256 C43.7728833,41.4981201 42.9806817,41.2683237 42.1666051,41.1948785 L42.1666051,38.8323831 L44.4999521,38.8323831 Z M33.9999727,27.2940541 L45.5558016,35.33239 L22.4441437,35.33239 L33.9999727,27.2940541 Z M27.5833368,48.1657165 L26.9999863,48.1657165 L26.9999863,38.8323831 L27.5833368,38.8323831 C27.9055002,38.8323831 28.1666872,38.5711962 28.1666872,38.2490327 L28.1666872,36.4990361 L30.4999795,36.4990361 L30.4999795,38.2490327 C30.4999795,38.5711962 30.7611665,38.8323831 31.0833299,38.8323831 L31.6666803,38.8323831 L31.6666803,48.1657165 L31.0833299,48.1657165 C30.7611665,48.1657165 30.4999795,48.4269035 30.4999795,48.7490669 L30.4999795,50.4990635 L28.1666325,50.4990635 L28.1666325,48.7490669 C28.1666325,48.4268488 27.9055002,48.1657165 27.5833368,48.1657165 Z M31.6666257,49.3323626 L35.4174699,49.3323626 C35.5323134,49.7354634 35.6866412,50.1262595 35.8783206,50.4990088 L31.6666803,50.4990088 L31.6666803,49.3323626 L31.6666257,49.3323626 Z M32.8333265,48.1657165 L32.8333265,38.8323831 L35.1666735,38.8323831 L35.1666735,48.1657165 L32.8333265,48.1657165 Z M35.7499692,37.665737 L31.6666257,37.665737 L31.6666257,36.4990908 L36.333265,36.4990908 L36.333265,37.665737 L35.7499692,37.665737 Z M36.3333197,38.8323831 L36.9166701,38.8323831 C37.2388335,38.8323831 37.5000205,38.5711962 37.5000205,38.2490327 L37.5000205,36.4990361 L39.8333675,36.4990361 L39.8333675,38.2490327 C39.8333675,38.5711962 40.0945545,38.8323831 40.4167179,38.8323831 L40.999959,38.8323831 L40.999959,41.1948785 C39.1222673,41.3675813 37.4155832,42.3574778 36.3333197,43.9015217 L36.3333197,38.8323831 Z M22.333347,36.4990361 L26.9999863,36.4990361 L26.9999863,37.6656823 L22.333347,37.6656823 L22.333347,36.4990361 Z M25.8333402,38.8323831 L25.8333402,48.1657165 L23.4999932,48.1657165 L23.4999932,38.8323831 L25.8333402,38.8323831 Z M22.333347,49.3323626 L26.9999863,49.3323626 L26.9999863,50.4990088 L22.333347,50.4990088 L22.333347,49.3323626 Z M21.1666462,52.8323558 L21.1666462,52.2490054 C21.1666462,51.9268419 21.4278331,51.6656549 21.7499966,51.6656549 L36.6366159,51.6656549 C37.0047168,52.1091697 37.4304035,52.5015518 37.902465,52.8323011 L21.1666462,52.8323011 L21.1666462,52.8323558 Z M46.8332992,52.8323558 L45.2583022,52.8323558 C45.7126998,52.5150049 46.1244412,52.1405603 46.4832998,51.7182095 C46.6946119,51.8104125 46.8317679,52.018498 46.8332992,52.2490601 L46.8332992,52.8323558 Z M41.5833094,52.8323558 C38.6838385,52.8323558 36.3333197,50.4818369 36.3333197,47.5823661 C36.3333197,44.6828952 38.6838385,42.3323763 41.5833094,42.3323763 C44.4827803,42.3323763 46.8332992,44.6828952 46.8332992,47.5823661 C46.8332992,50.4818369 44.4827803,52.8323558 41.5833094,52.8323558 Z M42.7499556,44.6657233 L42.1666051,44.6657233 L42.1666051,43.4990772 L40.999959,43.4990772 L40.999959,44.6657233 L40.4166086,44.6657233 C39.7722817,44.6657233 39.2499624,45.1880426 39.2499624,45.8323695 L39.2499624,46.9990156 C39.2499624,47.6433425 39.7722817,48.1656618 40.4166086,48.1656618 L42.7499556,48.1656618 L42.7499556,49.3323079 L40.4166086,49.3323079 L40.4166086,48.7489575 L39.2499624,48.7489575 L39.2499624,49.3323079 C39.2499624,49.9766348 39.7722817,50.4989541 40.4166086,50.4989541 L40.999959,50.4989541 L40.999959,51.6656003 L42.1666051,51.6656003 L42.1666051,50.4989541 L42.7499556,50.4989541 C43.3942824,50.4989541 43.9166017,49.9766348 43.9166017,49.3323079 L43.9166017,48.1656618 C43.9166017,47.5213349 43.3942824,46.9990156 42.7499556,46.9990156 L40.4166086,46.9990156 L40.4166086,45.8323695 L42.7499556,45.8323695 L42.7499556,46.4157199 L43.9166017,46.4157199 L43.9166017,45.8323695 C43.9166017,45.1880426 43.3942824,44.6657233 42.7499556,44.6657233 Z" id="ic_bank"></path>
            </g>
        </g>
    </g>
</svg>