<?xml version="1.0" encoding="UTF-8"?>
<svg width="16px" height="14px" viewBox="0 0 16 14" version="1.1" xmlns="http://www.w3.org/2000/svg" xmlns:xlink="http://www.w3.org/1999/xlink">
    <!-- Generator: Sketch 52.5 (67469) - http://www.bohemiancoding.com/sketch -->
    <title>ic_camera</title>
    <desc>Created with Sketch.</desc>
    <g id="Page-1" stroke="none" stroke-width="1" fill="none" fill-rule="evenodd">
        <g id="33_Infomation" transform="translate(-216.000000, -161.000000)" fill="#FFFFFF" fill-rule="nonzero">
            <g id="avatar" transform="translate(152.000000, 112.000000)">
                <g id="edit_avatar" transform="translate(56.000000, 40.000000)">
                    <path d="M23.3752246,11.7584395 C22.9585033,11.3418058 22.4558518,11.1334306 21.8669196,11.1334306 L20.0002408,11.1334306 L19.5753176,10.000166 C19.4697144,9.72798518 19.2767506,9.49322375 18.9960468,9.2959109 C18.7154597,9.09868561 18.4279842,9 18.1335036,9 L13.8667299,9 C13.5722784,9 13.2847445,9.09868561 13.0041575,9.2959109 C12.7235704,9.49322375 12.5305775,9.72798518 12.4250034,10.000166 L12.0000219,11.1334306 L10.1333431,11.1334306 C9.54435252,11.1334306 9.04167176,11.3418058 8.62495051,11.7584395 C8.20831684,12.1751024 8,12.6778415 8,13.2667737 L8,20.7335182 C8,21.3224795 8.20831684,21.825277 8.62495051,22.2418231 C9.04167176,22.6585444 9.54438171,22.8669196 10.1333431,22.8669196 L21.8667153,22.8669196 C22.4556474,22.8669196 22.9582698,22.6585444 23.3750202,22.2418231 C23.7916247,21.825277 24,21.3224795 24,20.7335182 L24,13.2667737 C24.0001167,12.6778415 23.7917415,12.1751024 23.3752246,11.7584395 Z M18.6375562,19.6377605 C17.9070024,20.3683434 17.0279095,20.7337225 16.0000438,20.7337225 C14.9721781,20.7337225 14.0931435,20.3683434 13.3625313,19.6377605 C12.6319192,18.9072943 12.2666861,18.027997 12.2666861,17.0003648 C12.2666861,15.9724116 12.632036,15.0934062 13.3625313,14.362794 C14.0930559,13.6321819 14.9722073,13.2669488 16.0000438,13.2669488 C17.0278803,13.2669488 17.9070024,13.6322695 18.6375562,14.362794 C19.3681391,15.0933186 19.7334306,15.9724116 19.7334306,17.0003648 C19.7334306,18.027997 19.3681683,18.9072067 18.6375562,19.6377605 Z M16.0000438,14.6001532 C15.3388998,14.6001532 14.7736101,14.8348855 14.3041456,15.3044083 C13.8346811,15.7738728 13.5999489,16.3390749 13.5999489,17.0003648 C13.5999489,17.6613921 13.8346811,18.2266817 14.3041456,18.6961462 C14.7736101,19.1655231 15.3388706,19.4002554 16.0000438,19.4002554 C16.6611002,19.4002554 17.2264482,19.1655231 17.6959127,18.6961462 C18.1653772,18.2266817 18.4001386,17.6614213 18.4001386,17.0003648 C18.4001386,16.3391041 18.1653772,15.773902 17.6959127,15.3044083 C17.2264774,14.8349147 16.6611002,14.6001532 16.0000438,14.6001532 Z" id="ic_camera"></path>
                </g>
            </g>
        </g>
    </g>
</svg>