<?xml version="1.0" encoding="UTF-8"?>
<svg width="48px" height="36px" viewBox="0 0 48 36" version="1.1" xmlns="http://www.w3.org/2000/svg" xmlns:xlink="http://www.w3.org/1999/xlink">
    <!-- Generator: Sketch 52.5 (67469) - http://www.bohemiancoding.com/sketch -->
    <title>ic_credit_card</title>
    <desc>Created with Sketch.</desc>
    <g id="Page-1" stroke="none" stroke-width="1" fill="none" fill-rule="evenodd">
        <g id="26_Add-Card-or-Bank" transform="translate(-204.000000, -145.000000)" fill="#9B9B9B" fill-rule="nonzero">
            <g id="card" transform="translate(168.000000, 120.000000)">
                <path d="M81.7987532,36.0335165 L77.0768538,36.0335165 L74.6898885,26.6598079 C74.3899827,25.4819922 73.1889531,24.7684119 72.0130486,25.0685456 L66.5709627,26.4581541 C66.203932,26.5518462 65.9822136,26.9258632 66.0757759,27.2934026 C66.169432,27.6609419 66.5428378,27.8827799 66.9098685,27.7892756 L72.3519544,26.399667 C72.795485,26.2867297 73.2476406,26.5555075 73.3607029,26.9992772 L73.6250775,28.0376815 L37.6621608,37.2206264 L37.3977862,36.182316 C37.3430362,35.9673313 37.3751925,35.7438035 37.4882548,35.5530398 C37.6014109,35.3622761 37.7819731,35.2269953 37.9966603,35.1721695 L62.7334058,28.8556561 C63.1004365,28.761964 63.3221549,28.387947 63.2285925,28.0204076 C63.1349364,27.6528683 62.7617182,27.4310303 62.3945,27.5245346 L37.6576608,33.8410481 C36.481475,34.1413695 35.768601,35.3438756 36.0685068,36.5215975 L41.1411245,56.4421365 C41.3947179,57.4379194 42.2921853,58.1021188 43.2744027,58.102025 C43.4538399,58.102025 43.6362771,58.0797755 43.8179644,58.0333988 L44.1427139,57.950503 L44.1427139,58.7957027 C44.1427139,60.0111642 45.1301812,61 46.3439607,61 L81.7987532,61 C83.0125327,61 84,60.0111642 84,58.7957027 L84,38.2378138 C84,37.0223523 83.0125327,36.0335165 81.7987532,36.0335165 Z M44.1428077,56.5329183 L43.4791524,56.7023713 C43.0359968,56.8155903 42.5834662,56.5465308 42.4704038,56.1027611 L39.3654083,43.9092793 L44.1428077,42.6894054 L44.1428077,56.5329183 Z M44.1428077,38.23772 L44.1428077,41.2718207 L39.0265026,42.5782517 L38.0011603,38.5515601 L44.628057,36.859377 C44.3248699,37.2372431 44.1428077,37.7164994 44.1428077,38.23772 Z M75.6612308,36.0334227 L70.20902,36.0334227 L75.328325,34.7262405 L75.6612308,36.0334227 Z M73.964077,29.3685213 L74.9894193,33.395213 L64.657528,36.0335165 L47.8627085,36.0335165 L73.964077,29.3685213 Z M81.7987532,59.626351 L46.3440545,59.626351 C45.8866489,59.626351 45.5144619,59.2537421 45.5144619,58.7957027 L45.5144619,57.0666248 L45.5144619,38.2378138 C45.5144619,37.7797744 45.8865551,37.4071655 46.3440545,37.4071655 L81.7987532,37.4071655 C82.2561588,37.4071655 82.628252,37.7797744 82.628252,38.2378138 L82.628252,58.7957027 C82.628252,59.2537421 82.2561588,59.626351 81.7987532,59.626351 Z M63.3133424,52.9413594 L48.368864,52.9413594 C47.9901146,52.9413594 47.68299,53.2488157 47.68299,53.6281839 C47.68299,54.0075521 47.9901146,54.3150084 48.368864,54.3150084 L63.3133424,54.3150084 C63.6920919,54.3150084 63.9992164,54.0075521 63.9992164,53.6281839 C63.9992164,53.2489096 63.6921856,52.9413594 63.3133424,52.9413594 Z M74.7427634,40.8641008 C73.7576398,40.8641008 72.8460161,41.182541 72.1029547,41.7207538 C71.3372996,41.1652671 70.4188321,40.8641008 69.4603335,40.8641008 C66.9705246,40.8641008 64.9449651,42.8924674 64.9449651,45.3857267 C64.9451526,47.8788921 66.9707121,49.9072587 69.4604273,49.9072587 C70.4189259,49.9072587 71.3372996,49.6060923 72.1029547,49.0506057 C72.8460161,49.5888185 73.7577336,49.9072587 74.7427634,49.9072587 C77.2324785,49.9072587 79.2580381,47.8788921 79.2580381,45.3857267 C79.2580381,42.8924674 77.2324785,40.8641008 74.7427634,40.8641008 Z M70.2329262,45.6000542 C70.2337699,45.6177036 70.2349887,45.6352591 70.2360199,45.6529085 C70.2393012,45.7104568 70.2437074,45.7678174 70.2491449,45.8249902 C70.2504574,45.8383211 70.2516761,45.851652 70.2530824,45.864983 C70.3367073,46.6682184 70.6293006,47.4227302 71.1065812,48.0672149 C70.6153319,48.3708221 70.0486139,48.5335158 69.4604273,48.5335158 C67.7269923,48.5335158 66.3168068,47.1213761 66.3168068,45.3856328 C66.3169006,43.6499834 67.727086,42.2377498 69.4604273,42.2377498 C70.0486139,42.2377498 70.6153319,42.4004434 71.1065812,42.7040507 C70.6293943,43.3485354 70.3367073,44.1030472 70.2530824,44.9062826 C70.2516761,44.9196135 70.2504574,44.9328506 70.2491449,44.9461815 C70.2437074,45.0033543 70.2393949,45.0607149 70.2360199,45.1182632 C70.2349887,45.1359126 70.2337699,45.1533742 70.2329262,45.1710236 C70.2296449,45.2422784 70.2274887,45.3137209 70.2274887,45.3855389 C70.2274887,45.4573569 70.2296449,45.5287995 70.2329262,45.6000542 Z M74.7429509,48.5336097 C73.8846709,48.5336097 73.1059845,48.1870994 72.5381416,47.6268249 C72.5264228,47.6152776 72.5148916,47.6036366 72.5033604,47.5919016 C72.4772042,47.5652397 72.4512355,47.5382962 72.4260167,47.5106956 C72.4190793,47.5030913 72.4122355,47.4953932 72.405298,47.487695 C72.3756731,47.4546493 72.3464231,47.4212281 72.3182044,47.386962 C72.3180169,47.3867743 72.3179232,47.3865865 72.3177357,47.3863987 C71.8691425,46.8420837 71.5993304,46.1447447 71.5993304,45.3855389 C71.5992367,44.626427 71.8691425,43.929088 72.3178294,43.3846791 C72.3179232,43.3845852 72.3180169,43.3844913 72.3181107,43.3843036 C72.3464231,43.3499436 72.3757668,43.3165224 72.4054855,43.2833828 C72.4123293,43.2757785 72.4190793,43.2681743 72.4260167,43.2606639 C72.4513292,43.2329694 72.4772979,43.205932 72.5035479,43.1792701 C72.5149854,43.167629 72.5264228,43.1560818 72.5380478,43.1446285 C73.1058908,42.5843539 73.8846709,42.2377498 74.7429509,42.2377498 C76.4762921,42.2377498 77.8864776,43.6498895 77.8864776,45.3857267 C77.8864776,47.12147 76.4762921,48.5336097 74.7429509,48.5336097 Z M53.2565132,41.3106869 L50.2484551,41.3106869 C48.8338634,41.3106869 47.6830838,42.4630613 47.6830838,43.8796133 L47.6830838,46.89184 C47.68299,48.3083921 48.8338634,49.4607664 50.2484551,49.4607664 L53.2565132,49.4607664 C54.6710112,49.4607664 55.8218845,48.3083921 55.8218845,46.89184 L55.8218845,43.8796133 C55.8218845,42.4631551 54.6711049,41.3106869 53.2565132,41.3106869 Z M54.4500427,45.7546742 L52.9868886,45.7546742 C52.6081392,45.7546742 52.3010146,46.0621305 52.3010146,46.4414987 C52.3010146,46.8208669 52.6080454,47.1283232 52.9868886,47.1283232 L54.4264178,47.1283232 C54.3164492,47.6745158 53.8337311,48.0872113 53.2564195,48.0872113 L50.2483613,48.0872113 C49.6709559,48.0872113 49.1882379,47.6746097 49.078363,47.1283232 L50.5178922,47.1283232 C50.8966416,47.1283232 51.2037662,46.8208669 51.2037662,46.4414987 C51.2037662,46.0621305 50.8967354,45.7546742 50.5178922,45.7546742 L49.0547381,45.7546742 L49.0547381,45.1594764 L50.5178922,45.1594764 C50.8966416,45.1594764 51.2037662,44.8520201 51.2037662,44.4726519 C51.2037662,44.0933776 50.8967354,43.7858274 50.5178922,43.7858274 L49.0594255,43.7858274 C49.1074255,43.1705393 49.6217372,42.684242 50.2483613,42.684242 L53.2564195,42.684242 C53.8830436,42.684242 54.3972616,43.1705393 54.4453553,43.7858274 L52.9868886,43.7858274 C52.6081392,43.7858274 52.3010146,44.0932837 52.3010146,44.4726519 C52.3010146,44.8519262 52.6080454,45.1594764 52.9868886,45.1594764 L54.4500427,45.1594764 L54.4500427,45.7546742 Z M79.4174129,55.9633496 L55.5362287,55.9633496 C55.1574792,55.9633496 54.8503547,56.2708059 54.8503547,56.6501741 C54.8503547,57.0295423 55.1573855,57.3369986 55.5362287,57.3369986 L79.4174129,57.3369986 C79.7961623,57.3369986 80.1032869,57.0295423 80.1032869,56.6501741 C80.1032869,56.2708059 79.7962561,55.9633496 79.4174129,55.9633496 Z M51.1639225,55.9633496 L48.3689578,55.9633496 C47.9902083,55.9633496 47.6830838,56.2708059 47.6830838,56.6501741 C47.6830838,57.0295423 47.9901146,57.3369986 48.3689578,57.3369986 L51.1639225,57.3369986 C51.542672,57.3369986 51.8497965,57.0295423 51.8497965,56.6501741 C51.8497965,56.2708059 51.542672,55.9633496 51.1639225,55.9633496 Z" id="ic_credit_card"></path>
            </g>
        </g>
    </g>
</svg>