<?xml version="1.0" encoding="UTF-8"?>
<svg width="20px" height="20px" viewBox="0 0 20 20" version="1.1" xmlns="http://www.w3.org/2000/svg" xmlns:xlink="http://www.w3.org/1999/xlink">
    <!-- Generator: Sketch 52.5 (67469) - http://www.bohemiancoding.com/sketch -->
    <title>ic_close</title>
    <desc>Created with Sketch.</desc>
    <g id="Page-1" stroke="none" stroke-width="1" fill="none" fill-rule="evenodd">
        <g id="26_Add-Card-or-Bank" transform="translate(-15.000000, -56.000000)" fill="#323334" fill-rule="nonzero">
            <g id="Navigation-Bar---Hierarchical">
                <g id="left" transform="translate(0.000000, 44.000000)">
                    <path d="M33.291257,12.2945294 L15.2928932,30.2928932 C14.9023689,30.6834175 14.9023689,31.3165825 15.2928932,31.7071068 C15.6834175,32.0976311 16.3165825,32.0976311 16.7071068,31.7071068 L34.7054706,13.708743 C35.0959949,13.3182187 35.0959949,12.6850537 34.7054706,12.2945294 C34.3149463,11.9040051 33.6817813,11.9040051 33.291257,12.2945294 Z M34.7055188,30.2929414 L16.7079731,12.2929414 C16.3174754,11.9023905 15.6843105,11.9023473 15.2937595,12.292845 C14.9032086,12.6833427 14.9031655,13.3165077 15.2936631,13.7070586 L33.2912088,31.7070586 C33.6817065,32.0976095 34.3148714,32.0976527 34.7054224,31.707155 C35.0959733,31.3166573 35.0960164,30.6834923 34.7055188,30.2929414 Z" id="ic_close"></path>
                </g>
            </g>
        </g>
    </g>
</svg>