<?xml version="1.0" encoding="UTF-8"?>
<svg width="24px" height="24px" viewBox="0 0 24 24" version="1.1" xmlns="http://www.w3.org/2000/svg" xmlns:xlink="http://www.w3.org/1999/xlink">
    <!-- Generator: Sketch 52.5 (67469) - http://www.bohemiancoding.com/sketch -->
    <title>ic_calendar</title>
    <desc>Created with Sketch.</desc>
    <g id="Page-1" stroke="none" stroke-width="1" fill="none" fill-rule="evenodd">
        <g id="14_Add_Transaction" transform="translate(-44.000000, -395.000000)" fill="#7B7B7B" fill-rule="nonzero" stroke="#7B7B7B" stroke-width="0.5">
            <g id="form" transform="translate(16.000000, 287.000000)">
                <g id="time" transform="translate(16.000000, 105.000000)">
                    <path d="M34.5000156,13.3500024 C34.2000078,13.3500024 34.0000312,13.5700241 34.0000312,13.8999858 L34.0000312,16.0999669 L34.0000312,19.3999622 L34.0000312,19.9499456 C34.0000312,20.5549464 33.5500195,21.0499598 33.0000195,21.0499598 L32.0000078,21.0499598 C31.15,21.0499598 30.5000117,21.7649478 30.5000117,22.6999575 L30.5000117,23.7999716 C30.5000117,24.4049723 30.05,24.8999858 29.5,24.8999858 L26.9999922,24.8999858 L14.4999961,24.8999858 C14.1999883,24.8999858 14.0000117,24.6799641 14.0000117,24.3500024 L14.0000117,13.8999858 C14.0000117,13.5699768 13.7999922,13.3500024 13.5000273,13.3500024 C13.2000625,13.3500024 13,13.5699768 13,13.8999858 L13,24.3500024 C13,25.2850121 13.6499883,26 14.4999961,26 L26.9999922,26 L29.5,26 L30.1499883,26 C30.7999766,26 31.4500078,25.7250083 31.8999766,25.1749775 L34.2499805,22.5899702 C34.6999922,22.0949568 35,21.3799688 35,20.6649809 L35,19.9499929 L35,19.4000095 L35,16.1000142 L35,13.9000331 C35,13.5699768 34.7999805,13.3500024 34.5000156,13.3500024 Z M31.4500078,24.1849979 C31.4500078,24.0750106 31.5000234,23.9649761 31.5000234,23.8000189 L31.5000234,22.7000047 C31.5000234,22.3699957 31.700043,22.1500213 32.0000078,22.1500213 L33.0000195,22.1500213 C33.1000078,22.1500213 33.2000391,22.1500213 33.35,22.095004 L31.4500078,24.1849979 Z M33.5000039,5.64999764 L29.9999844,5.64999764 L29.9999844,4.54998346 C29.9999844,4.21997448 29.7999648,4 29.5,4 C29.2000352,4 29.0000156,4.22002174 29.0000156,4.54998346 L29.0000156,5.64999764 L18.9999844,5.64999764 L18.9999844,4.54998346 C18.9999844,4.21997448 18.7999648,4 18.5,4 C18.2000352,4 18.0000156,4.22002174 18.0000156,4.54998346 L18.0000156,5.64999764 L14.4999961,5.64999764 C13.6499883,5.64999764 13,6.36498558 13,7.29999527 L13,11.7000047 C13,12.0300137 13.2000195,12.2499882 13.4999844,12.2499882 L34.4999727,12.2499882 C34.7999805,12.2499882 34.999957,12.0299664 34.999957,11.7000047 L34.999957,7.29999527 C35,6.36498558 34.3500117,5.64999764 33.5000039,5.64999764 Z M34.0000313,11.149974 L14.0000117,11.149974 L14.0000117,7.29999527 C14.0000117,6.96998629 14.2000313,6.75001182 14.4999961,6.75001182 L18.0000156,6.75001182 L18.0000156,8.01503049 C17.7000078,8.18003498 17.5000313,8.56501394 17.5000313,8.95004018 C17.5000313,9.55504088 17.950043,10.0500544 18.500043,10.0500544 C19.050043,10.0500544 19.5000117,9.55499362 19.5000117,8.94999291 C19.5000117,8.56501394 19.2999922,8.17998771 19.0000273,8.01498322 L19.0000273,6.75001182 L29.0000156,6.75001182 L29.0000156,8.01503049 C28.7000078,8.18003498 28.5000313,8.56501394 28.5000313,8.95004018 C28.5000313,9.55504088 28.950043,10.0500544 29.500043,10.0500544 C30.050043,10.0500544 30.5000117,9.55499362 30.5000117,8.94999291 C30.5000117,8.56501394 30.2999922,8.17998771 30.0000273,8.01498322 L30.0000273,6.75001182 L33.5000469,6.75001182 C33.8000547,6.75001182 34.0000313,6.97003356 34.0000313,7.29999527 L34.0000313,11.149974 Z M22.0000195,16.6499976 C21.4477283,16.6499976 21.0000078,16.1575045 21.0000078,15.5499835 C21.0000078,14.9424624 21.4477283,14.4499693 22.0000195,14.4499693 C22.5523108,14.4499693 23.0000313,14.9424624 23.0000313,15.5499835 C23.0000313,16.1575045 22.5523108,16.6499976 22.0000195,16.6499976 Z M25.9999805,16.6499976 C25.4476892,16.6499976 24.9999688,16.1575045 24.9999688,15.5499835 C24.9999688,14.9424624 25.4476892,14.4499693 25.9999805,14.4499693 C26.5522717,14.4499693 26.9999922,14.9424624 26.9999922,15.5499835 C26.9999922,16.1575045 26.5522717,16.6499976 25.9999805,16.6499976 Z M29.9999844,16.6499976 C29.4476932,16.6499976 28.9999727,16.1575045 28.9999727,15.5499835 C28.9999727,14.9424624 29.4476932,14.4499693 29.9999844,14.4499693 C30.5522756,14.4499693 30.9999961,14.9424624 30.9999961,15.5499835 C30.9999961,16.1575045 30.5522756,16.6499976 29.9999844,16.6499976 Z M18.0000156,21.6000378 C17.4477244,21.6000378 17.0000039,21.1075447 17.0000039,20.5000236 C17.0000039,19.8925026 17.4477244,19.4000095 18.0000156,19.4000095 C18.5523068,19.4000095 19.0000273,19.8925026 19.0000273,20.5000236 C19.0000273,21.1075447 18.5523068,21.6000378 18.0000156,21.6000378 Z M22.0000195,21.6000378 C21.4477283,21.6000378 21.0000078,21.1075447 21.0000078,20.5000236 C21.0000078,19.8925026 21.4477283,19.4000095 22.0000195,19.4000095 C22.5523108,19.4000095 23.0000313,19.8925026 23.0000313,20.5000236 C23.0000313,21.1075447 22.5523108,21.6000378 22.0000195,21.6000378 Z M25.9999805,21.6000378 C25.4476892,21.6000378 24.9999688,21.1075447 24.9999688,20.5000236 C24.9999688,19.8925026 25.4476892,19.4000095 25.9999805,19.4000095 C26.5522717,19.4000095 26.9999922,19.8925026 26.9999922,20.5000236 C26.9999922,21.1075447 26.5522717,21.6000378 25.9999805,21.6000378 Z" id="ic_calendar"></path>
                </g>
            </g>
        </g>
    </g>
</svg>