<?xml version="1.0" encoding="UTF-8"?>
<svg width="32px" height="24px" viewBox="0 0 32 24" version="1.1" xmlns="http://www.w3.org/2000/svg" xmlns:xlink="http://www.w3.org/1999/xlink">
    <!-- Generator: Sketch 52.5 (67469) - http://www.bohemiancoding.com/sketch -->
    <title>ic_cash</title>
    <desc>Created with Sketch.</desc>
    <g id="Page-1" stroke="none" stroke-width="1" fill="none" fill-rule="evenodd">
        <g id="27_List-Wallet" transform="translate(-34.000000, -252.000000)" fill="#3E82FE" fill-rule="nonzero">
            <g id="Group" transform="translate(16.000000, 224.000000)">
                <path d="M48.9401379,32.5086897 L20.7586207,28 L20.7586207,30.3889655 L19.1034483,30.2565517 L19.1034483,32.5092414 L18,32.5092414 L18,51.2678621 L50,51.2678621 L50,32.5092414 L48.9401379,32.5092414 L48.9401379,32.5086897 Z M21.862069,29.2937931 L36.6493793,31.6595862 L21.862069,30.4766897 L21.862069,29.2937931 Z M20.2068966,31.4510345 L20.7586207,31.4951724 L20.7586207,31.4957241 L24.4866207,31.7936552 L33.4262069,32.5086897 L20.2068966,32.5086897 L20.2068966,31.4510345 Z M48.8965517,50.1638621 L19.1034483,50.1638621 L19.1034483,33.6121379 L47.2413793,33.6121379 L48.8965517,33.6121379 L48.8965517,50.1638621 Z M21.5862069,38.025931 C22.6510345,38.025931 23.5172414,37.1597241 23.5172414,36.0948966 C23.5172414,35.030069 22.6510345,34.1638621 21.5862069,34.1638621 C20.5213793,34.1638621 19.6551724,35.030069 19.6551724,36.0948966 C19.6551724,37.1597241 20.5213793,38.025931 21.5862069,38.025931 Z M21.5862069,35.2673103 C22.0424828,35.2673103 22.4137931,35.6386207 22.4137931,36.0948966 C22.4137931,36.5511724 22.0424828,36.9224828 21.5862069,36.9224828 C21.129931,36.9224828 20.7586207,36.5517241 20.7586207,36.0948966 C20.7586207,35.638069 21.129931,35.2673103 21.5862069,35.2673103 Z M44.4827586,36.0948966 C44.4827586,37.1597241 45.3489655,38.025931 46.4137931,38.025931 C47.4786207,38.025931 48.3448276,37.1597241 48.3448276,36.0948966 C48.3448276,35.030069 47.4786207,34.1638621 46.4137931,34.1638621 C45.3489655,34.1638621 44.4827586,35.0306207 44.4827586,36.0948966 Z M47.2413793,36.0948966 C47.2413793,36.5511724 46.870069,36.9224828 46.4137931,36.9224828 C45.9575172,36.9224828 45.5862069,36.5511724 45.5862069,36.0948966 C45.5862069,35.6386207 45.9575172,35.2673103 46.4137931,35.2673103 C46.870069,35.2673103 47.2413793,35.6386207 47.2413793,36.0948966 Z M21.5862069,45.750069 C20.5213793,45.750069 19.6551724,46.6162759 19.6551724,47.6811034 C19.6551724,48.745931 20.5213793,49.6121379 21.5862069,49.6121379 C22.6510345,49.6121379 23.5172414,48.745931 23.5172414,47.6811034 C23.5172414,46.6162759 22.6510345,45.750069 21.5862069,45.750069 Z M21.5862069,48.5086897 C21.129931,48.5086897 20.7586207,48.1373793 20.7586207,47.6811034 C20.7586207,47.2248276 21.129931,46.8535172 21.5862069,46.8535172 C22.0424828,46.8535172 22.4137931,47.2248276 22.4137931,47.6811034 C22.4137931,48.1373793 22.0424828,48.5086897 21.5862069,48.5086897 Z M46.4137931,45.750069 C45.3489655,45.750069 44.4827586,46.6162759 44.4827586,47.6811034 C44.4827586,48.745931 45.3489655,49.6121379 46.4137931,49.6121379 C47.4786207,49.6121379 48.3448276,48.745931 48.3448276,47.6811034 C48.3448276,46.6162759 47.4786207,45.750069 46.4137931,45.750069 Z M46.4137931,48.5086897 C45.9575172,48.5086897 45.5862069,48.1373793 45.5862069,47.6811034 C45.5862069,47.2248276 45.9575172,46.8535172 46.4137931,46.8535172 C46.870069,46.8535172 47.2413793,47.2248276 47.2413793,47.6811034 C47.2413793,48.1373793 46.870069,48.5086897 46.4137931,48.5086897 Z M35.4057931,49.478069 C35.4736552,49.4653793 35.542069,49.4554483 35.6093793,49.4411034 C35.8124138,49.3975172 36.0137931,49.3456552 36.2124138,49.2855172 C36.304,49.257931 36.3933793,49.225931 36.4833103,49.1950345 C36.6002759,49.1547586 36.7166897,49.1128276 36.832,49.0670345 C36.9313103,49.0278621 37.030069,48.9875862 37.1271724,48.9445517 C37.2364138,48.8954483 37.344,48.841931 37.4515862,48.7878621 C37.6016552,48.7122759 37.7484138,48.6328276 37.8929655,48.5478621 C37.9150345,48.5351724 37.9371034,48.521931 37.9591724,48.5086897 L43.9955862,48.5086897 L43.942069,47.9084138 C43.9365517,47.8333793 43.9310345,47.7583448 43.9310345,47.6811034 C43.9310345,46.3122759 45.0449655,45.1983448 46.4137931,45.1983448 C46.489931,45.1983448 46.5644138,45.2033103 46.6388966,45.209931 L47.2413793,45.2651034 L47.2413793,38.5108966 L46.6388966,38.566069 C46.5644138,38.5726897 46.4893793,38.5776552 46.4137931,38.5776552 C45.0449655,38.5776552 43.9310345,37.4637241 43.9310345,36.0948966 C43.9310345,36.0182069 43.9365517,35.9426207 43.9426207,35.8675862 L43.9961379,35.2673103 L37.958069,35.2673103 C36.7988966,34.5715862 35.4477241,34.1638621 34,34.1638621 C32.5522759,34.1638621 31.2011034,34.5715862 30.041931,35.2673103 L24.0022069,35.2673103 L24.0573793,35.8692414 C24.064,35.9442759 24.0689655,36.0187586 24.0689655,36.0948966 C24.0689655,37.4637241 22.9550345,38.5776552 21.5862069,38.5776552 C21.510069,38.5776552 21.4350345,38.5726897 21.3605517,38.566069 L20.7586207,38.5108966 L20.7586207,45.2651034 L21.3605517,45.209931 C21.4350345,45.2033103 21.510069,45.1983448 21.5862069,45.1983448 C22.9550345,45.1983448 24.0689655,46.3122759 24.0689655,47.6811034 C24.0689655,47.7572414 24.064,47.8322759 24.0573793,47.9067586 L24.0022069,48.5086897 L30.0286897,48.5086897 C30.1164138,48.5616552 30.2046897,48.6129655 30.294069,48.662069 C30.3216552,48.6775172 30.3503448,48.6913103 30.3784828,48.7062069 C30.5577931,48.8016552 30.7398621,48.8893793 30.9252414,48.969931 C30.9677241,48.9881379 31.0096552,49.0068966 31.0521379,49.0245517 C31.2623448,49.1117241 31.4753103,49.1911724 31.6926897,49.2595862 C31.6982069,49.2612414 31.7037241,49.2634483 31.7092414,49.2651034 C31.9337931,49.3346207 32.1622069,49.3925517 32.3928276,49.4411034 C32.4468966,49.4526897 32.502069,49.4615172 32.5566897,49.4714483 C32.7348966,49.5051034 32.9142069,49.5326897 33.0951724,49.5536552 C33.1608276,49.5613793 33.225931,49.5696552 33.2921379,49.5757241 C33.5266207,49.5972414 33.7622069,49.6115862 34,49.6115862 C34.2328276,49.6115862 34.464,49.5972414 34.6946207,49.5762759 C34.7663448,49.5696552 34.8375172,49.5613793 34.9086897,49.5531034 C35.0753103,49.5343448 35.2408276,49.5084138 35.4057931,49.478069 Z M32.4722759,48.3238621 C32.4375172,48.3155862 32.4027586,48.3056552 32.368,48.2968276 C32.1881379,48.2521379 32.0110345,48.198069 31.8355862,48.137931 C31.7544828,48.1097931 31.673931,48.0805517 31.593931,48.0496552 C31.4675862,48.0011034 31.3445517,47.945931 31.2215172,47.8896552 C31.1613793,47.8615172 31.1017931,47.8328276 31.0422069,47.8030345 L32.5053793,47.0824828 C32.822069,46.9263448 33.0190345,46.6096552 33.0190345,46.2565517 L33.0190345,45.3434483 L32.6857931,45.2 C31.9784828,44.8954483 31.5183448,44.3117241 31.2788966,43.4151724 L31.2,43.1211034 L30.9092414,43.0306207 C30.7348966,42.9765517 30.617931,42.8209655 30.617931,42.6438621 L30.617931,42.1633103 C30.617931,41.9867586 30.7326897,41.8626207 30.8397241,41.8057931 L31.0990345,41.6678621 L31.1293793,41.376 C31.1751724,40.9324138 31.2744828,40.5235862 31.4228966,40.1611034 C31.4863448,40.006069 31.5404138,39.8902069 31.584,39.7964138 C31.7307586,39.4808276 31.7964138,39.2937931 31.7815172,38.9908966 C32.3348966,39.2755862 32.9864828,39.3964138 33.6871724,39.3406897 C33.7594483,39.3346207 33.833931,39.3318621 33.9089655,39.3318621 C35.6634483,39.3318621 36.5197241,39.9641379 36.6863448,41.3815172 L36.72,41.6695172 L36.9765517,41.8052414 C37.0846897,41.8626207 37.2,41.9867586 37.2,42.1638621 L37.2,42.6444138 C37.2,42.8215172 37.0830345,42.9771034 36.9086897,43.0311724 L36.617931,43.1216552 L36.5390345,43.4157241 C36.2995862,44.3122759 35.8394483,44.8965517 35.1321379,45.2005517 L34.7988966,45.344 L34.7988966,46.2609655 C34.7988966,46.608 34.9908966,46.921931 35.3009655,47.0813793 L36.8331034,47.8642759 C36.8126897,47.8742069 36.7928276,47.8841379 36.7718621,47.8935172 C36.5809655,47.9817931 36.3867586,48.0612414 36.1886897,48.1302069 C36.1649655,48.1384828 36.1417931,48.1478621 36.118069,48.1561379 C34.9462069,48.5478621 33.6695172,48.6008276 32.4722759,48.3238621 Z M39.3997241,36.3707586 L42.838069,36.3707586 C42.9726897,38.1291034 44.3795862,39.536 46.137931,39.6706207 L46.137931,44.1053793 C44.3795862,44.24 42.9726897,45.6468966 42.838069,47.4052414 L39.3997241,47.4052414 C39.408,47.3969655 39.4151724,47.3881379 39.4234483,47.3798621 C39.5177931,47.2866207 39.6049655,47.1867586 39.6943448,47.0885517 C39.7804138,46.9947586 39.8697931,46.9042759 39.9503448,46.8066207 C39.9812414,46.7691034 40.0082759,46.7282759 40.0386207,46.6902069 C40.9434483,45.5591724 41.5166897,44.1947586 41.6755862,42.7293793 C41.6777931,42.7111724 41.6816552,42.6935172 41.6838621,42.6753103 C41.7103448,42.416 41.7241379,42.1533793 41.7241379,41.888 C41.7241379,41.6226207 41.7103448,41.36 41.6844138,41.1001379 C41.6827586,41.081931 41.6783448,41.0642759 41.6761379,41.046069 C41.5172414,39.5812414 40.9434483,38.2162759 40.0391724,37.0852414 C40.0088276,37.0471724 39.9817931,37.0063448 39.9508966,36.9688276 C39.8697931,36.8717241 39.7809655,36.7806897 39.6948966,36.6868966 C39.6055172,36.5892414 39.5183448,36.4888276 39.424,36.3955862 C39.4151724,36.3884138 39.408,36.3790345 39.3997241,36.3707586 Z M37.5376552,36.3017931 C37.9933793,36.5908966 38.4033103,36.9296552 38.7674483,37.305931 C38.8171034,37.3572414 38.8634483,37.4113103 38.9114483,37.4642759 C39.030069,37.5950345 39.142069,37.7307586 39.2496552,37.8697931 C39.3053793,37.9426207 39.3616552,38.0154483 39.4146207,38.0904828 C39.5150345,38.2328276 39.6071724,38.3806897 39.696,38.5302069 C39.7351724,38.5958621 39.7782069,38.6587586 39.8151724,38.726069 C39.9282759,38.9335172 40.0292414,39.1481379 40.1191724,39.3671724 C40.1533793,39.449931 40.1809655,39.5354483 40.2118621,39.6193103 C40.2681379,39.7737931 40.3205517,39.9293793 40.3657931,40.0882759 C40.3917241,40.1793103 40.4148966,40.2708966 40.4364138,40.3630345 C40.4761379,40.5307586 40.5081379,40.7006897 40.5346207,40.8717241 C40.5473103,40.9528276 40.5622069,41.0333793 40.5721379,41.1155862 C40.6013793,41.3704828 40.6206897,41.6275862 40.6206897,41.888 C40.6206897,42.1484138 40.6013793,42.4055172 40.5715862,42.6598621 C40.5622069,42.742069 40.5467586,42.822069 40.534069,42.9037241 C40.5075862,43.0753103 40.4755862,43.2452414 40.4358621,43.4124138 C40.4137931,43.5045517 40.3906207,43.5966897 40.3652414,43.6871724 C40.3205517,43.846069 40.2681379,44.0016552 40.2113103,44.1561379 C40.1804138,44.2405517 40.1528276,44.326069 40.1186207,44.4082759 C40.0281379,44.6273103 39.9277241,44.841931 39.8146207,45.0493793 C39.7776552,45.1166897 39.7346207,45.1795862 39.6954483,45.2452414 C39.6066207,45.3947586 39.5144828,45.5426207 39.414069,45.6849655 C39.3611034,45.76 39.3048276,45.8328276 39.2491034,45.9056552 C39.142069,46.0446897 39.0295172,46.1804138 38.9108966,46.3111724 C38.8628966,46.3641379 38.8165517,46.4182069 38.7668966,46.4695172 C38.505931,46.7393103 38.214069,46.9826207 37.9051034,47.2088276 C37.8113103,47.1404138 37.7158621,47.0736552 37.6115862,47.0212414 L35.9012414,46.1478621 L35.9012414,46.0474483 C36.6731034,45.6137931 37.2187586,44.9131034 37.5282759,43.958069 C38.0016552,43.6948966 38.3028966,43.1983448 38.3028966,42.6427586 L38.3028966,42.1622069 C38.3028966,41.7042759 38.0943448,41.2788966 37.744,40.9947586 C37.5133793,39.6755862 36.6377931,38.2262069 33.9084138,38.2262069 C33.801931,38.2262069 33.6976552,38.230069 33.5972414,38.2383448 C33.1933793,38.2703448 32.6030345,38.2366897 32.0943448,37.894069 C31.904,37.766069 31.7611034,37.6424828 31.6706207,37.5271724 C31.4885517,37.296 31.1851034,37.216 30.9131034,37.328 C30.6427586,37.4394483 30.4838621,37.7103448 30.5175172,38.0005517 C30.5384828,38.182069 30.5688276,38.3933793 30.6146207,38.6245517 C30.7034483,39.0703448 30.7034483,39.0703448 30.5826207,39.3291034 C30.5335172,39.4350345 30.4722759,39.5663448 30.4005517,39.7412414 C30.2422069,40.128 30.1285517,40.5511724 30.0628966,41.001931 C29.718069,41.286069 29.5133793,41.7086897 29.5133793,42.1622069 L29.5133793,42.6427586 C29.5133793,43.1983448 29.8146207,43.6954483 30.288,43.958069 C30.5975172,44.9131034 31.1431724,45.6137931 31.9150345,46.0474483 L31.9150345,46.1417931 L30.1417931,47.0157241 C30.0855172,47.0466207 30.0325517,47.0885517 29.9784828,47.126069 C29.7125517,46.9224828 29.4598621,46.7056552 29.2308966,46.4689655 C29.1812414,46.4176552 29.1348966,46.3635862 29.0868966,46.3106207 C28.9682759,46.1798621 28.8562759,46.0441379 28.7486897,45.9051034 C28.6929655,45.8322759 28.6366897,45.7594483 28.5837241,45.6844138 C28.4833103,45.542069 28.3911724,45.3942069 28.3023448,45.2446897 C28.2631724,45.1790345 28.2201379,45.1161379 28.1831724,45.0488276 C28.070069,44.8413793 27.9691034,44.6267586 27.8791724,44.4077241 C27.8449655,44.3249655 27.8173793,44.2394483 27.7864828,44.1555862 C27.7302069,44.0011034 27.6777931,43.8455172 27.6325517,43.6866207 C27.6066207,43.5955862 27.5834483,43.504 27.561931,43.4118621 C27.5222069,43.2441379 27.4902069,43.0742069 27.4637241,42.9031724 C27.4510345,42.822069 27.4361379,42.7415172 27.4262069,42.6593103 C27.3986207,42.4055172 27.3793103,42.1489655 27.3793103,41.888 C27.3793103,41.6270345 27.3986207,41.3704828 27.4284138,41.1161379 C27.4377931,41.033931 27.4532414,40.953931 27.465931,40.8722759 C27.4924138,40.7006897 27.5244138,40.5307586 27.5641379,40.3635862 C27.5862069,40.2714483 27.6093793,40.1793103 27.6347586,40.0888276 C27.6794483,39.929931 27.7318621,39.7743448 27.7886897,39.6198621 C27.8195862,39.5354483 27.8471724,39.449931 27.8813793,39.3677241 C27.9718621,39.1486897 28.0722759,38.934069 28.1853793,38.7266207 C28.2223448,38.6593103 28.2653793,38.5964138 28.3045517,38.5307586 C28.3933793,38.3812414 28.4855172,38.2333793 28.585931,38.0910345 C28.6388966,38.016 28.6951724,37.9431724 28.7508966,37.8703448 C28.857931,37.7313103 28.9704828,37.5955862 29.0891034,37.4648276 C29.1371034,37.4118621 29.1834483,37.3577931 29.2331034,37.3064828 C29.5972414,36.9302069 30.0071724,36.5914483 30.4628966,36.3023448 C31.4874483,35.6507586 32.6990345,35.2678621 34.0005517,35.2678621 C35.302069,35.2678621 36.5131034,35.6502069 37.5376552,36.3017931 Z M25.161931,47.4052414 C25.0273103,45.6474483 23.6204138,44.24 21.862069,44.1053793 L21.862069,39.6706207 C23.6204138,39.536 25.0273103,38.1291034 25.161931,36.3707586 L28.6002759,36.3707586 C28.592,36.3790345 28.5848276,36.3878621 28.5765517,36.3961379 C28.4822069,36.4893793 28.3950345,36.5892414 28.3056552,36.6874483 C28.2195862,36.7812414 28.1302069,36.8717241 28.0496552,36.9693793 C28.0187586,37.0068966 27.9917241,37.0477241 27.9613793,37.0857931 C27.0565517,38.2168276 26.4833103,39.5812414 26.3244138,41.0466207 C26.3222069,41.0648276 26.3183448,41.0824828 26.3161379,41.1006897 C26.2896552,41.36 26.2758621,41.6231724 26.2758621,41.888 C26.2758621,42.1528276 26.2896552,42.416 26.3155862,42.6758621 C26.3172414,42.694069 26.3216552,42.7117241 26.3238621,42.729931 C26.4827586,44.1947586 27.0565517,45.5597241 27.9608276,46.6907586 C27.9911724,46.7288276 28.0182069,46.7696552 28.0491034,46.8071724 C28.1302069,46.9042759 28.2190345,46.9953103 28.3051034,47.0891034 C28.3944828,47.1867586 28.4816552,47.2871724 28.576,47.3804138 C28.5842759,47.3886897 28.5914483,47.3975172 28.5997241,47.4057931 L25.161931,47.4057931 L25.161931,47.4052414 Z" id="ic_cash"></path>
            </g>
        </g>
    </g>
</svg>