<?xml version="1.0" encoding="UTF-8"?>
<svg width="9px" height="8px" viewBox="0 0 9 8" version="1.1" xmlns="http://www.w3.org/2000/svg" xmlns:xlink="http://www.w3.org/1999/xlink">
    <!-- Generator: Sketch 52.5 (67469) - http://www.bohemiancoding.com/sketch -->
    <title>ic_down</title>
    <desc>Created with Sketch.</desc>
    <g id="Page-1" stroke="none" stroke-width="1" fill="none" fill-rule="evenodd">
        <g id="38_Home_by_Category" transform="translate(-220.000000, -52.000000)" fill="#080808">
            <g id="Navigation-Bar---Hierarchical">
                <g id="Group-2" transform="translate(88.000000, 46.000000)">
                    <path d="M133,7.07569141 L133,12.9275433 C133,13.4373282 133.497978,13.9466279 134.000323,13.9957949 C134.029274,13.9987061 134.078279,14 134.107068,14 C134.484878,14 134.817888,13.767912 135.076985,13.5815947 C135.122271,13.5492479 135.170629,13.5178716 135.212033,13.4900534 C135.577066,13.2432476 135.939673,12.979945 136.287886,12.7252143 C136.588711,12.5054181 136.901019,12.2778586 137.210739,12.0645318 C137.49814,11.8664079 137.783762,11.6642407 138.068413,11.4622352 L138.377001,11.2435711 C138.870451,10.9071648 139.296943,10.6165292 139.296943,10.0011321 C139.296943,9.36276888 138.781336,9.02571567 138.377001,8.76176613 C138.316351,8.71874495 138.254246,8.67604723 138.19214,8.63334951 C138.119683,8.5835355 138.047065,8.53372149 137.976549,8.48309882 C137.354844,8.03622837 136.745754,7.60003235 136.126961,7.17548116 C136.041242,7.11661006 135.954876,7.05660683 135.868025,6.99628012 C135.64176,6.83891315 135.407569,6.67620896 135.174511,6.52660521 C135.119683,6.49134724 135.061297,6.44638525 134.999353,6.39915898 C134.766133,6.22125182 134.475821,6 134.12405,6 C133.98318,6 133.807375,6.0363901 133.681708,6.1077147 C133.385897,6.27591784 133,6.63027656 133,7.07569141 Z" id="ic_down" transform="translate(136.148472, 10.000000) rotate(-270.000000) translate(-136.148472, -10.000000) "></path>
                </g>
            </g>
        </g>
    </g>
</svg>