<?xml version="1.0" encoding="UTF-8"?>
<svg width="48px" height="39px" viewBox="0 0 48 39" version="1.1" xmlns="http://www.w3.org/2000/svg" xmlns:xlink="http://www.w3.org/1999/xlink">
    <!-- Generator: Sketch 52.5 (67469) - http://www.bohemiancoding.com/sketch -->
    <title>ic_debit_card</title>
    <desc>Created with Sketch.</desc>
    <g id="Page-1" stroke="none" stroke-width="1" fill="none" fill-rule="evenodd">
        <g id="26_Add-Card-or-Bank" transform="translate(-60.000000, -145.000000)" fill="#FFFFFF" fill-rule="nonzero">
            <g id="card" transform="translate(24.000000, 120.000000)">
                <path d="M61.5920392,52.061215 L74.3880119,52.061215 C74.8678621,52.061215 75.187731,51.7428785 75.187731,51.2653271 L75.187731,44.102056 C75.187731,43.6245046 74.8678621,43.3061681 74.3880119,43.3061681 L61.5920392,43.3061681 C61.1121891,43.3061681 60.7923202,43.6245046 60.7923202,44.102056 L60.7923202,51.2653271 C60.7922265,51.7427852 61.1121891,52.061215 61.5920392,52.061215 Z M62.3917582,44.897944 L73.5882929,44.897944 L73.5882929,50.4693459 L62.3917582,50.4693459 L62.3917582,44.897944 Z M83.2652397,33.4367103 C82.7054458,32.7203832 81.9856706,32.3223926 81.105914,32.2428318 L79.1865134,32.0113313 L79.1865134,29.7754207 L79.1865134,28.1836449 C79.1865134,26.4326542 77.746963,25 75.9875437,25 L39.1989698,25 C37.4395504,24.9999067 36,26.4325609 36,28.1836449 L36,29.775514 L36,36.1428971 L36,53.6530841 C36,55.0906817 36.9706656,56.3130081 38.2917531,56.7047494 C38.2514532,58.3148065 39.4755396,59.7125771 41.1184641,59.8612523 L78.0669256,64 C78.1468694,64 78.3068506,64 78.3867944,64 C79.9863262,64 81.4258766,62.8061215 81.5857642,61.2939065 L83.9850149,35.7449065 C84.0649587,34.9489253 83.8250336,34.0733833 83.2652397,33.4367103 Z M37.5995317,30.5714019 L77.5870754,30.5714019 L77.5870754,32.6408224 L77.5870754,35.3469159 L37.5995317,35.3469159 L37.5995317,30.5714019 Z M39.1989698,26.5917758 L75.98745,26.5917758 C76.8672065,26.5917758 77.5869817,27.3081029 77.5869817,28.1836449 L77.5869817,28.9795328 L37.5995317,28.9795328 L37.5995317,28.1836449 C37.5995317,27.3081029 38.319307,26.5917758 39.1989698,26.5917758 Z M37.5995317,53.6529908 L37.5995317,36.9386918 L77.5870754,36.9386918 L77.5870754,53.6529908 C77.5870754,54.5285328 76.8673002,55.2448599 75.9875437,55.2448599 L39.2790073,55.2448599 L39.1990635,55.2448599 C38.319307,55.2448599 37.5995317,54.5285328 37.5995317,53.6529908 Z M82.3854832,35.4264767 L79.9862324,60.9754767 C79.9062887,61.8510187 79.1064759,62.4876917 78.2268131,62.4081309 L41.3582954,58.2693832 C40.5585764,58.1898224 39.9986888,57.5530561 39.918745,56.836729 L75.98745,56.836729 C77.7468693,56.836729 79.1864197,55.4040748 79.1864197,53.6530841 L79.1864197,36.1428038 L79.1864197,33.5162711 L81.0258765,33.675486 C81.4257829,33.675486 81.8255955,33.9142617 82.0655206,34.2325982 C82.3055394,34.5509348 82.4655207,35.0284862 82.3854832,35.4264767 Z M39.9987825,41.7142058 C39.5189323,41.7142058 39.1990635,41.3958693 39.1990635,40.9183179 C39.1990635,40.4407665 39.5189323,40.1224299 39.9987825,40.1224299 L46.3968157,40.1224299 C46.8766659,40.1224299 47.1965347,40.4407665 47.1965347,40.9183179 C47.1965347,41.3958693 46.8766659,41.7142058 46.3968157,41.7142058 L39.9987825,41.7142058 Z M49.5957855,41.7142058 C49.1159353,41.7142058 48.7960665,41.3958693 48.7960665,40.9183179 C48.7960665,40.4407665 49.1159353,40.1224299 49.5957855,40.1224299 L55.9938187,40.1224299 C56.4736689,40.1224299 56.7935377,40.4407665 56.7935377,40.9183179 C56.7935377,41.3958693 56.4736689,41.7142058 55.9938187,41.7142058 L49.5957855,41.7142058 Z M39.9987825,44.897944 C39.5189323,44.897944 39.1990635,44.5796074 39.1990635,44.102056 C39.1990635,43.6245046 39.5189323,43.3061681 39.9987825,43.3061681 L50.3955045,43.3061681 C50.8753546,43.3061681 51.1952235,43.6245046 51.1952235,44.102056 C51.1952235,44.5796074 50.8753546,44.897944 50.3955045,44.897944 L39.9987825,44.897944 Z M55.993725,43.3060749 C56.4735751,43.3060749 56.793444,43.6244114 56.793444,44.1019628 C56.793444,44.5795142 56.4735751,44.8978507 55.993725,44.8978507 L53.5944742,44.8978507 C53.1146241,44.8978507 52.7947552,44.5795142 52.7947552,44.1019628 C52.7947552,43.6244114 53.1146241,43.3060749 53.5944742,43.3060749 L55.993725,43.3060749 Z" id="ic_debit_card"></path>
            </g>
        </g>
    </g>
</svg>