<?xml version="1.0" encoding="UTF-8"?>
<svg width="24px" height="24px" viewBox="0 0 24 24" version="1.1" xmlns="http://www.w3.org/2000/svg" xmlns:xlink="http://www.w3.org/1999/xlink">
    <!-- Generator: Sketch 52.5 (67469) - http://www.bohemiancoding.com/sketch -->
    <title>ic_faceid</title>
    <desc>Created with Sketch.</desc>
    <g id="Page-1" stroke="none" stroke-width="1" fill="none" fill-rule="evenodd">
        <g id="31_Settings_Profile" transform="translate(-32.000000, -695.000000)" fill="#323334" fill-rule="nonzero">
            <g id="device" transform="translate(16.000000, 566.000000)">
                <g id="Group-2" transform="translate(16.000000, 129.000000)">
                    <path d="M16.8389981,1.23711336 L19.6701031,1.23711336 C21.3782003,1.23711336 22.7628866,2.62179972 22.7628866,4.32989688 L22.7628866,7.35091812 C22.7628866,7.6925376 23.0398238,7.96947492 23.3814433,7.96947492 C23.7230627,7.96947492 24,7.6925376 24,7.35091812 L24,4.32989688 C24,1.93856088 22.0614391,0 19.6701031,0 L16.8389981,0 C16.4973786,0 16.2204414,0.27693732 16.2204414,0.61855668 C16.2204414,0.96017616 16.4973786,1.23711336 16.8389981,1.23711336 Z M22.7628866,16.8389981 L22.7628866,19.6701031 C22.7628866,21.3782003 21.3782003,22.7628866 19.6701031,22.7628866 L16.8723421,22.7628866 C16.5307228,22.7628866 16.2537854,23.0398238 16.2537854,23.3814433 C16.2537854,23.7230627 16.5307228,24 16.8723421,24 L19.6701031,24 C22.0614391,24 24,22.0614391 24,19.6701031 L24,16.8389981 C24,16.4973786 23.7230627,16.2204414 23.3814433,16.2204414 C23.0398238,16.2204414 22.7628866,16.4973786 22.7628866,16.8389981 Z M7.19458764,22.7628866 L4.32989688,22.7628866 C2.62179972,22.7628866 1.23711336,21.3782003 1.23711336,19.6701031 L1.23711336,16.862194 C1.23711336,16.5205745 0.96017616,16.2436373 0.61855668,16.2436373 C0.27693732,16.2436373 0,16.5205745 0,16.862194 L0,19.6701031 C0,22.0614391 1.93856088,24 4.32989688,24 L7.19458764,24 C7.53620712,24 7.81314432,23.7230627 7.81314432,23.3814433 C7.81314432,23.0398238 7.53620712,22.7628866 7.19458764,22.7628866 Z M1.23711336,7.24629516 C1.23711336,7.58791452 0.96017616,7.86485184 0.61855668,7.86485184 C0.27693732,7.86485184 0,7.58791452 0,7.24629516 L0,4.32989688 C0,1.93856088 1.93856088,0 4.32989688,0 L7.1735664,0 C7.51518576,0 7.79212308,0.27693732 7.79212308,0.61855668 C7.79212308,0.96017616 7.51518576,1.23711336 7.1735664,1.23711336 L4.32989688,1.23711336 C2.62179972,1.23711336 1.23711336,2.62179972 1.23711336,4.32989688 L1.23711336,7.24629516 Z M15.96,8.78769216 C15.96,8.3747532 16.282355,8.04 16.68,8.04 C17.077645,8.04 17.4,8.3747532 17.4,8.78769216 L17.4,10.5323078 C17.4,10.9452468 17.077645,11.28 16.68,11.28 C16.282355,11.28 15.96,10.9452468 15.96,10.5323078 L15.96,8.78769216 Z M6.6,8.78769216 C6.6,8.3747532 6.92235504,8.04 7.32,8.04 C7.71764496,8.04 8.04,8.3747532 8.04,8.78769216 L8.04,10.5323078 C8.04,10.9452468 7.71764496,11.28 7.32,11.28 C6.92235504,11.28 6.6,10.9452468 6.6,10.5323078 L6.6,8.78769216 Z M11.069427,13.4001404 C11.5189105,13.4001404 11.6692225,13.2482173 11.7011461,12.6804211 L11.7011461,8.77992984 C11.7011461,8.37127788 12.036676,8.04 12.450573,8.04 C12.8644702,8.04 13.2,8.37127788 13.2,8.77992984 L13.2,12.699968 L13.1990458,12.7372948 C13.1306093,14.0750189 12.358583,14.88 11.069427,14.88 C10.6555298,14.88 10.32,14.5487221 10.32,14.1400702 C10.32,13.7314183 10.6555298,13.4001404 11.069427,13.4001404 Z M7.89987624,17.4253702 C7.61278836,17.1509497 7.60594164,16.6992834 7.88458356,16.416545 C8.1632256,16.1338067 8.62184016,16.1270636 8.90892804,16.4014841 C9.69857076,17.1562844 10.7149973,17.5331468 12,17.5331468 C13.2850027,17.5331468 14.3014292,17.1562844 15.091072,16.4014841 C15.3781598,16.1270636 15.8367744,16.1338067 16.1154164,16.416545 C16.3940584,16.6992834 16.3872116,17.1509497 16.1001238,17.4253702 C15.0301859,18.4480981 13.6495472,18.96 12,18.96 C10.3504528,18.96 8.96981412,18.4480981 7.89987624,17.4253702 Z" id="ic_faceid"></path>
                </g>
            </g>
        </g>
    </g>
</svg>