<?xml version="1.0" encoding="UTF-8"?>
<svg width="13px" height="24px" viewBox="0 0 13 24" version="1.1" xmlns="http://www.w3.org/2000/svg" xmlns:xlink="http://www.w3.org/1999/xlink">
    <!-- Generator: Sketch 52.5 (67469) - http://www.bohemiancoding.com/sketch -->
    <title>ic_facebook</title>
    <desc>Created with Sketch.</desc>
    <g id="Page-1" stroke="none" stroke-width="1" fill="none" fill-rule="evenodd">
        <g id="06_Sign_Up" transform="translate(-58.000000, -616.000000)" fill="#FFFFFF" fill-rule="nonzero">
            <g id="btn_Facebook" transform="translate(40.000000, 604.000000)">
                <path d="M18.3871406,24.7823906 L21.0179062,24.7823906 L21.0179062,35.6129062 C21.0179062,35.82675 21.1911562,36 21.405,36 L25.8655781,36 C26.0794219,36 26.2526719,35.82675 26.2526719,35.6129062 L26.2526719,24.8334375 L29.277,24.8334375 C29.4736406,24.8334375 29.6391094,24.685875 29.6615625,24.4905469 L30.1208906,20.5033125 C30.1335,20.393625 30.0987656,20.28375 30.0253594,20.2014375 C29.9519062,20.1190781 29.8467656,20.0719219 29.7364219,20.0719219 L26.2528594,20.0719219 L26.2528594,17.5725 C26.2528594,16.8190781 26.6585156,16.437 27.4587656,16.437 C27.5728125,16.437 29.7364219,16.437 29.7364219,16.437 C29.9502656,16.437 30.1235156,16.2636563 30.1235156,16.0499062 L30.1235156,12.3899531 C30.1235156,12.1761094 29.9502656,12.0028594 29.7364219,12.0028594 L26.5974375,12.0028594 C26.5753125,12.0017813 26.5261406,12 26.4536719,12 C25.9090312,12 24.0158906,12.1069219 22.5204375,13.4826562 C20.8635,15.0072187 21.0938437,16.8325781 21.148875,17.1490781 L21.148875,20.0718281 L18.3870937,20.0718281 C18.17325,20.0718281 18,20.2450781 18,20.4589219 L18,24.39525 C18.0000469,24.6090469 18.1732969,24.7823906 18.3871406,24.7823906 Z" id="ic_facebook"></path>
            </g>
        </g>
    </g>
</svg>