<?xml version="1.0" encoding="UTF-8"?>
<svg width="20px" height="16px" viewBox="0 0 20 16" version="1.1" xmlns="http://www.w3.org/2000/svg" xmlns:xlink="http://www.w3.org/1999/xlink">
    <!-- Generator: Sketch 52.5 (67469) - http://www.bohemiancoding.com/sketch -->
    <title>ic_filter</title>
    <desc>Created with Sketch.</desc>
    <g id="Page-1" stroke="none" stroke-width="1" fill="none" fill-rule="evenodd">
        <g id="38_Home_by_Category" transform="translate(-296.000000, -58.000000)" fill="#323334" fill-rule="nonzero">
            <g id="Navigation-Bar---Hierarchical">
                <g id="right" transform="translate(297.000000, 44.000000)">
                    <path d="M0,16 C-0.55228475,16 -1,15.5522847 -1,15 C-1,14.4477153 -0.55228475,14 0,14 L18,14 C18.5522847,14 19,14.4477153 19,15 C19,15.5522847 18.5522847,16 18,16 L0,16 Z M3,23 C2.44771525,23 2,22.5522847 2,22 C2,21.4477153 2.44771525,21 3,21 L15,21 C15.5522847,21 16,21.4477153 16,22 C16,22.5522847 15.5522847,23 15,23 L3,23 Z M6,30 C5.44771525,30 5,29.5522847 5,29 C5,28.4477153 5.44771525,28 6,28 L12,28 C12.5522847,28 13,28.4477153 13,29 C13,29.5522847 12.5522847,30 12,30 L6,30 Z" id="ic_filter"></path>
                </g>
            </g>
        </g>
    </g>
</svg>