<?xml version="1.0" encoding="UTF-8"?>
<svg width="26px" height="25px" viewBox="0 0 26 25" version="1.1" xmlns="http://www.w3.org/2000/svg" xmlns:xlink="http://www.w3.org/1999/xlink">
    <!-- Generator: Sketch 52.5 (67469) - http://www.bohemiancoding.com/sketch -->
    <title>ic_friends</title>
    <desc>Created with Sketch.</desc>
    <g id="Page-1" stroke="none" stroke-width="1" fill="none" fill-rule="evenodd" stroke-linecap="round">
        <g id="14_Add_Transaction" transform="translate(-43.000000, -663.000000)" stroke="#7B7B7B" stroke-width="1.5">
            <g id="form" transform="translate(16.000000, 554.000000)">
                <g id="friends" transform="translate(16.000000, 105.000000)">
                    <path d="M22.16,8.26223083 C22.52,6.94223083 23.44,5.30223083 25.76,5.30223083 C25.76,5.30223083 32.16,3.26223083 32.16,9.78223083 C32.16,15.2622308 33.4,15.8622308 34.72,17.1822308 C33.0417435,17.5765128 31.3239442,17.7778174 29.6,17.7822308 L29.6,18.4222308 C29.6,19.0622308 29.48,20.3422308 32.68,20.9822308 C35.88,21.6222308 36,24.1822308 36,24.1822308 L27.6,24.1822308 M26.44,23.8622308 C23.24,23.4222308 23.24,22.2622308 23.24,21.6222308 L23.24,21.2622308 C24.0548446,20.5076255 24.6376281,19.5363198 24.92,18.4622308 C25.88,18.4622308 26.12,16.4222308 26.12,16.1422308 C26.12,15.8622308 26.04,14.7022308 25.6,14.5822308 C27.2,8.98223083 22.4,6.58223083 18.24,9.46223083 C16.48,9.46223083 15.92,12.0222308 16.56,14.5822308 C16.12,14.5822308 16.04,15.7822308 16.04,16.1022308 C16.04,16.4222308 16.28,18.4222308 17.24,18.4222308 C17.56,19.5822308 18.44,20.5422308 19.2,21.2222308 L19.2,21.6222308 C19.2,22.2622308 18.96,23.4622308 15.72,23.8622308 C12.48,24.2622308 12,27.3822308 12,27.3822308 L29.6000238,27.3822308 C29.6000238,27.3822308 29.64,24.3022308 26.44,23.8622308 Z" id="ic_friends"></path>
                </g>
            </g>
        </g>
    </g>
</svg>