<?xml version="1.0" encoding="UTF-8"?>
<svg width="16px" height="16px" viewBox="0 0 16 16" version="1.1" xmlns="http://www.w3.org/2000/svg" xmlns:xlink="http://www.w3.org/1999/xlink">
    <!-- Generator: Sketch 52.5 (67469) - http://www.bohemiancoding.com/sketch -->
    <title>ic_menu_policy_active</title>
    <desc>Created with Sketch.</desc>
    <g id="Page-1" stroke="none" stroke-width="1" fill="none" fill-rule="evenodd">
        <g id="25_Menu" transform="translate(-32.000000, -477.000000)" fill="#3E82FE" fill-rule="nonzero">
            <g id="Group-2" transform="translate(32.000000, 381.000000)">
                <g id="report" transform="translate(0.000000, 94.000000)">
                    <path d="M8,18 C0.5,14.499 0,2.9995 0,2.9995 C1.3635,3.818 2.5785,4.115 3.6245,4.115 C6.413,4.115 7.9995,2 7.9995,2 C7.9995,2 9.586,4.115 12.375,4.115 C13.421,4.115 14.6355,3.818 15.9995,2.9995 C16,2.9995 15.5,14.499 8,18 Z M8,16.883 C11.4755,15.0335 13.2355,11.1845 14.121,8 L1.884,8 C2.772,11.1855 4.5325,15.036 8,16.883 Z M12.3755,5.115 C10.332,5.115 8.8435,4.162 8,3.4285 C7.157,4.162 5.668,5.115 3.625,5.115 C2.822,5.115 2.006,4.9665 1.1845,4.6715 C1.279,5.3215 1.4205,6.1205 1.628,6.9995 L14.378,6.9995 C14.5845,6.12 14.7255,5.321 14.819,4.6705 C13.996,4.967 13.179,5.115 12.3755,5.115 Z" id="ic_menu_policy_active"></path>
                </g>
            </g>
        </g>
    </g>
</svg>