<?xml version="1.0" encoding="UTF-8"?>
<svg width="16px" height="16px" viewBox="0 0 16 16" version="1.1" xmlns="http://www.w3.org/2000/svg" xmlns:xlink="http://www.w3.org/1999/xlink">
    <!-- Generator: Sketch 52.5 (67469) - http://www.bohemiancoding.com/sketch -->
    <title>ic_menu_about_active</title>
    <desc>Created with Sketch.</desc>
    <g id="Page-1" stroke="none" stroke-width="1" fill="none" fill-rule="evenodd">
        <g id="25_Menu" transform="translate(-32.000000, -576.000000)" fill="#3E82FE">
            <g id="Group-3" transform="translate(32.000000, 575.000000)">
                <g id="category">
                    <path d="M12.9235,3.5585 C13.3295,4.194 13.6235,4.89 13.7855,5.6275 C14.512,6.494 14.96,7.5645 14.96,8.7385 C14.96,10.7955 13.6285,12.556 11.716,13.382 L12.389,13.383 L12.389,14.924 L10.479,13.777 C10.0995,13.85 9.7065,13.8915 9.303,13.8915 C8.791,13.8915 8.3045,13.8095 7.8325,13.694 C7.231,13.82 6.606,13.8945 5.96,13.8945 C5.8275,13.8945 5.698,13.8825 5.5665,13.8775 C6.6335,14.5435 7.919,14.9325 9.303,14.9325 C9.6625,14.9325 10.0075,14.885 10.351,14.8355 L13.417,16.9855 L13.417,13.5895 C14.972,12.4565 15.989,10.72 15.989,8.747 C15.989,6.568 14.7645,4.6605 12.9235,3.5585 M4.3775,11.6 L3.1315,12.3485 L3.1315,10.9155 C1.8415,10.001 0.997,8.5915 0.997,6.991 C0.997,4.231 3.46,1.994 6.498,1.994 C9.5365,1.994 11.999,4.231 11.999,6.991 C11.999,9.7495 9.5365,11.9865 6.498,11.9865 C5.7465,11.9865 5.0305,11.848 4.3775,11.6 M12.9965,6.998 C12.9965,3.685 10.087,1 6.498,1 C2.9095,1 0,3.685 0,6.998 C0,8.7405 0.818,10.296 2.103,11.392 L2.103,14.4095 L4.552,12.6925 C5.17,12.8725 5.8155,12.9965 6.498,12.9965 C10.087,12.9965 12.9965,10.311 12.9965,6.998" id="ic_menu_about_active"></path>
                </g>
            </g>
        </g>
    </g>
</svg>