<?xml version="1.0" encoding="UTF-8"?>
<svg width="34px" height="24px" viewBox="0 0 34 24" version="1.1" xmlns="http://www.w3.org/2000/svg" xmlns:xlink="http://www.w3.org/1999/xlink">
    <!-- Generator: Sketch 52.5 (67469) - http://www.bohemiancoding.com/sketch -->
    <title>ic_mail</title>
    <desc>Created with Sketch.</desc>
    <g id="Page-1" stroke="none" stroke-width="1" fill="none" fill-rule="evenodd">
        <g id="07_Forgot_Password" transform="translate(-57.000000, -393.000000)" fill="#323334" fill-rule="nonzero">
            <g id="email" transform="translate(40.000000, 365.000000)">
                <path d="M19,30.0571429 L19,49.9428571 L49,49.9428571 L49,30.0571429 L19,30.0571429 Z M51,28 L51,52 L17,52 L17,28 L51,28 Z M20.4956084,30.296634 C20.1452382,29.9694998 19.5866435,29.9786444 19.2479522,30.3170592 C18.909261,30.6554739 18.9187287,31.195008 19.2690989,31.5221423 L34,45.2761141 L48.7309011,31.5221423 C49.0812713,31.195008 49.090739,30.6554739 48.7520478,30.3170592 C48.4133565,29.9786444 47.8547618,29.9694998 47.5043916,30.296634 L34,42.9054364 L20.4956084,30.296634 Z M38.0758179,40.41482 L47.4875821,49.687244 C47.8287339,50.0233451 48.3873815,50.0286875 48.7353563,49.6991766 C49.0833312,49.3696657 49.0888624,48.8300806 48.7477105,48.4939795 L39.3359463,39.2215555 C38.9947945,38.8854543 38.4361469,38.8801119 38.0881721,39.2096228 C37.7401972,39.5391337 37.734666,40.0787189 38.0758179,40.41482 Z M20.5124179,49.687244 L29.9241821,40.41482 C30.265334,40.0787189 30.2598028,39.5391337 29.9118279,39.2096228 C29.5638531,38.8801119 29.0052055,38.8854543 28.6640537,39.2215555 L19.2522895,48.4939795 C18.9111376,48.8300806 18.9166688,49.3696657 19.2646437,49.6991766 C19.6126185,50.0286875 20.1712661,50.0233451 20.5124179,49.687244 Z" id="ic_mail"></path>
            </g>
        </g>
    </g>
</svg>