<?xml version="1.0" encoding="UTF-8"?>
<svg width="14px" height="16px" viewBox="0 0 14 16" version="1.1" xmlns="http://www.w3.org/2000/svg" xmlns:xlink="http://www.w3.org/1999/xlink">
    <!-- Generator: Sketch 52.5 (67469) - http://www.bohemiancoding.com/sketch -->
    <title>ic_menu_category</title>
    <desc>Created with Sketch.</desc>
    <g id="Page-1" stroke="none" stroke-width="1" fill="none" fill-rule="evenodd">
        <g id="25_Menu" transform="translate(-33.000000, -236.000000)" fill="#3E82FE" fill-rule="nonzero">
            <g id="Group" transform="translate(32.000000, 187.000000)">
                <g id="category" transform="translate(1.000000, 47.000000)">
                    <path d="M12.9995938,14.9995938 L11.999625,14.9995938 L11.999625,13.999625 L12.4996094,13.999625 C12.7756008,13.999625 12.9995938,13.775632 12.9995938,13.4996406 L12.9995938,3.49995313 C12.9995938,3.22346177 12.7756008,2.99996875 12.4996094,2.99996875 L5.49982813,2.99996875 C5.22333677,2.99996875 4.99984375,3.22346177 4.99984375,3.49995313 L4.99984375,3.9999375 L3.999875,3.9999375 L3.999875,2.99996875 C3.999875,2.447986 4.44736102,2 4.99984375,2 L12.9995938,2 C13.5515765,2 13.9995625,2.447986 13.9995625,2.99996875 L13.9995625,13.999625 C13.9995625,14.5521077 13.5515765,14.9995938 12.9995938,14.9995938 Z M10.9996563,5.999875 L10.9996563,16.9995313 C10.9996563,17.552014 10.5516703,18 9.99968751,18 L0.999968751,18 C0.447986,18 0,17.552014 0,16.9995313 L0,5.999875 C0,5.44739227 0.447986,4.99940627 0.999968751,4.99940627 L9.99968751,4.99940627 C10.5516703,4.99940627 10.9996563,5.44739227 10.9996563,5.999875 Z M9.49970313,5.999875 L1.49995313,5.999875 C1.22396175,5.999875 0.999968751,6.223868 0.999968751,6.49985938 L0.999968751,16.4995469 C0.999968751,16.7760382 1.22396175,16.9995313 1.49995313,16.9995313 L9.49970313,16.9995313 C9.77569451,16.9995313 9.99968751,16.7760382 9.99968751,16.4995469 L9.99968751,6.49985938 C9.99968751,6.223868 9.77569451,5.999875 9.49970313,5.999875 Z" id="ic_menu_category"></path>
                </g>
            </g>
        </g>
    </g>
</svg>