<?xml version="1.0" encoding="UTF-8"?>
<svg width="16px" height="15px" viewBox="0 0 16 15" version="1.1" xmlns="http://www.w3.org/2000/svg" xmlns:xlink="http://www.w3.org/1999/xlink">
    <!-- Generator: Sketch 52.5 (67469) - http://www.bohemiancoding.com/sketch -->
    <title>ic_menu_report_active</title>
    <desc>Created with Sketch.</desc>
    <g id="Page-1" stroke="none" stroke-width="1" fill="none" fill-rule="evenodd">
        <g id="25_Menu" transform="translate(-32.000000, -283.000000)" fill="#3E82FE" fill-rule="nonzero">
            <g id="Group" transform="translate(32.000000, 187.000000)">
                <g id="report" transform="translate(0.000000, 94.000000)">
                    <path d="M15.4666667,3.0706371 L14.9333333,3.0706371 L14.9333333,12.7111913 C14.9333333,13.3024786 14.4554667,13.7823639 13.8666667,13.7823639 L9.79306667,13.7823639 L11.12,16.2364206 C11.2837333,16.4801124 11.1866667,16.791288 10.9034667,16.9321472 C10.6197333,17.0719353 10.2576,16.9889194 10.0938667,16.7457632 L8.61226667,14.006239 C8.5648,13.9350061 8.54506667,13.8589528 8.53973333,13.7823639 L7.4592,13.7823639 C7.45386667,13.8589528 7.43466667,13.9350061 7.38666667,14.006239 L5.9056,16.7457632 C5.74186667,16.9889194 5.37973333,17.0713997 5.096,16.9321472 C4.8128,16.791288 4.71573333,16.4801124 4.87893333,16.2364206 L6.2064,13.7823639 L2.13333333,13.7823639 C1.54453333,13.7823639 1.06666667,13.3024786 1.06666667,12.7111913 L1.06666667,3.0706371 L0.533333333,3.0706371 C0.238933333,3.0706371 0,2.83123 0,2.53505076 C0,2.2394071 0.2384,2 0.533333333,2 L2.13333333,2 L13.8666667,2 L15.4666667,2 C15.7610667,2 16,2.2394071 16,2.53505076 C16,2.83123 15.7610667,3.0706371 15.4666667,3.0706371 Z M13.8666667,3.07170827 L13.3386667,3.07170827 C13.3365333,3.07170827 13.3349333,3.0706371 13.3333333,3.0706371 L2.66666667,3.0706371 C2.66453333,3.0706371 2.66293333,3.07170827 2.6608,3.07170827 L2.13333333,3.07170827 L2.13333333,3.60622344 L2.13333333,12.1756049 C2.13333333,12.4712486 2.37173333,12.7111913 2.66666667,12.7111913 L13.3333333,12.7111913 C13.6277333,12.7111913 13.8666667,12.4712486 13.8666667,12.1756049 L13.8666667,4.14341654 L13.8666667,3.07170827 Z M4.8,8.42650052 C5.0944,8.42650052 5.33333333,8.66644321 5.33333333,8.96208687 L5.33333333,11.1044322 C5.33333333,11.4006115 5.0944,11.6400186 4.8,11.6400186 C4.50506667,11.6400186 4.26666667,11.4011471 4.26666667,11.1044322 L4.26666667,8.96208687 C4.26666667,8.66644321 4.50506667,8.42650052 4.8,8.42650052 Z M7.99413333,4.14341654 L8.00533333,4.14341654 C8.29706667,4.14609447 8.5328,4.38335922 8.5328,4.67739613 L8.5328,11.1044322 C8.5328,11.4006115 8.29386667,11.6400186 7.99946667,11.6400186 C7.70506667,11.6400186 7.46613333,11.4011471 7.46613333,11.1044322 L7.46613333,4.67739613 C7.46666667,4.38335922 7.7024,4.14609447 7.99413333,4.14341654 Z M11.2,5.74856881 C11.4944,5.74856881 11.7333333,5.98851149 11.7333333,6.28415515 L11.7333333,11.1044322 C11.7333333,11.4006115 11.4944,11.6400186 11.2,11.6400186 C10.9050667,11.6400186 10.6666667,11.4011471 10.6666667,11.1044322 L10.6666667,6.28415515 C10.6666667,5.98851149 10.9050667,5.74856881 11.2,5.74856881 Z" id="ic_menu_report_active"></path>
                </g>
            </g>
        </g>
    </g>
</svg>