<?xml version="1.0" encoding="UTF-8"?>
<svg width="16px" height="16px" viewBox="0 0 16 16" version="1.1" xmlns="http://www.w3.org/2000/svg" xmlns:xlink="http://www.w3.org/1999/xlink">
    <!-- Generator: Sketch 52.5 (67469) - http://www.bohemiancoding.com/sketch -->
    <title>ic_menu_wallet</title>
    <desc>Created with Sketch.</desc>
    <g id="Page-1" stroke="none" stroke-width="1" fill="none" fill-rule="evenodd">
        <g id="25_Menu" transform="translate(-32.000000, -187.000000)" fill="#3E82FE" fill-rule="nonzero">
            <g id="Group" transform="translate(32.000000, 187.000000)">
                <g id="wallet">
                    <path d="M15.272514,8.06710576 L15.272514,5.81833536 C15.272514,5.05580226 14.6810463,4.43566457 13.9337516,4.37552918 L11.8453763,0.727860991 C11.6518454,0.390502819 11.3393391,0.149381724 10.9654019,0.0492583456 C10.5932375,-0.0501832256 10.204062,0.0020432012 9.87096513,0.195915061 L2.7118879,4.3638021 L1.45453326,4.3638021 C0.652353071,4.3638021 0,5.01612108 0,5.81833536 L0,14.5454667 C0,15.3476469 0.65231898,16 1.45453326,16 L13.8179807,16 C14.6201609,16 15.272514,15.347681 15.272514,14.5454667 L15.272514,12.2966963 C15.6948594,12.1460851 15.9997636,11.7462394 15.9997636,11.2727925 L15.9997636,9.09100963 C15.9997636,8.61756275 15.6948594,8.21771695 15.272514,8.06710576 Z M13.0886857,4.3638021 L9.91927116,4.3638021 L12.2963577,2.97986997 L13.0886857,4.3638021 Z M11.935034,2.34875519 L8.47387412,4.3638021 L7.03822691,4.3638021 L11.5760625,1.72179944 L11.935034,2.34875519 Z M10.2370615,0.824438972 C10.4014793,0.728201895 10.5935784,0.702634127 10.7771891,0.75165606 C10.9629133,0.801359801 11.1177517,0.921391947 11.2139888,1.08935514 L11.2147388,1.09068466 L5.59289805,4.3638021 L4.15731903,4.3638021 L10.2370615,0.824438972 Z M14.5452303,14.5454667 C14.5452303,14.9463693 14.2188833,15.2727163 13.8179807,15.2727163 L1.45453326,15.2727163 C1.05363066,15.2727163 0.727283675,14.9463693 0.727283675,14.5454667 L0.727283675,5.81833536 C0.727283675,5.41743276 1.05363066,5.09108578 1.45453326,5.09108578 L13.8179807,5.09108578 C14.2188833,5.09108578 14.5452303,5.41743276 14.5452303,5.81833536 L14.5452303,8.00011821 L12.3634475,8.00011821 C11.1603306,8.00011821 10.1816646,8.97878417 10.1816646,10.1819011 C10.1816646,11.3850179 11.1603306,12.3636839 12.3634475,12.3636839 L14.5452303,12.3636839 L14.5452303,14.5454667 Z M15.272514,11.2727925 C15.272514,11.4734142 15.109528,11.6364343 14.9088722,11.6364343 L12.3634475,11.6364343 C11.5612673,11.6364343 10.9089142,10.9841153 10.9089142,10.1819011 C10.9089142,9.37972086 11.5612332,8.72736779 12.3634475,8.72736779 L14.9088722,8.72736779 C15.1094939,8.72736779 15.272514,8.89035379 15.272514,9.09100963 L15.272514,11.2727925 Z" id="ic_menu_wallet"></path>
                </g>
            </g>
        </g>
    </g>
</svg>