<?xml version="1.0" encoding="UTF-8"?>
<svg width="16px" height="16px" viewBox="0 0 16 16" version="1.1" xmlns="http://www.w3.org/2000/svg" xmlns:xlink="http://www.w3.org/1999/xlink">
    <!-- Generator: Sketch 52.5 (67469) - http://www.bohemiancoding.com/sketch -->
    <title>ic_menu_help_active</title>
    <desc>Created with Sketch.</desc>
    <g id="Page-1" stroke="none" stroke-width="1" fill="none" fill-rule="evenodd">
        <g id="25_Menu" transform="translate(-32.000000, -430.000000)" fill="#3E82FE" fill-rule="nonzero">
            <g id="Group-2" transform="translate(32.000000, 381.000000)">
                <g id="category" transform="translate(0.000000, 47.000000)">
                    <path d="M7.99950003,18 C3.58127617,18 0,14.4182239 0,10.0005 C0,5.58177614 3.58127617,2 7.99950003,2 C12.4172239,2 15.9990001,5.58177614 15.9990001,10.0005 C15.9990001,14.4182239 12.4172239,18 7.99950003,18 Z M7.99950003,17.0000625 C9.48890694,17.0000625 10.863821,16.5270921 11.9982501,15.7341416 L10.0258734,13.4312855 C9.42991063,13.7837635 8.7424536,14.00025 7.99950003,14.00025 C7.25654647,14.00025 6.56908943,13.7837635 5.97312668,13.4312855 L4.00074995,15.7341416 C5.13517905,16.5270921 6.51009312,17.0000625 7.99950003,17.0000625 Z M10.9993125,10.0005 C10.9993125,8.34410349 9.65589651,7.00068746 7.99950003,7.00068746 C6.34260359,7.00068746 4.99968752,8.34410349 4.99968752,10.0005 C4.99968752,11.6568964 6.34260359,12.9998125 7.99950003,12.9998125 C9.65589651,12.9998125 10.9993125,11.6568964 10.9993125,10.0005 Z M0.999937504,10.0005 C0.999937504,12.0148741 1.86338354,13.8172614 3.22529842,15.0941816 L5.16867696,12.8253234 C4.44622211,12.1013687 3.99975002,11.1029311 3.99975002,10.0005 C3.99975002,9.03556028 4.35472783,8.16311481 4.92269233,7.47265796 L2.95131554,5.17030186 C1.74839073,6.4272233 0.999937504,8.12311731 0.999937504,10.0005 Z M7.99950003,2.9999375 C6.37260171,2.9999375 4.89519405,3.57740141 3.70676833,4.50834323 L5.65014687,6.77670146 C6.31060559,6.29373164 7.11855509,6.00074995 7.99950003,6.00074995 C8.88044497,6.00074995 9.68789451,6.29373164 10.3488532,6.77670146 L12.2917318,4.50834323 C11.103306,3.57740141 9.62589838,2.9999375 7.99950003,2.9999375 Z M13.0476845,5.17030186 L11.0763077,7.47265796 C11.6442722,8.16311481 11.99975,9.03556028 11.99975,10.0005 C11.99975,11.1029311 11.552778,12.1013687 10.8303231,12.8253234 L12.7737016,15.0941816 C14.1366165,13.8167615 14.9995625,12.0148741 14.9995625,10.0005 C14.9990626,8.12311731 14.2501094,6.42772327 13.0476845,5.17030186 Z" id="ic_menu_help_active"></path>
                </g>
            </g>
        </g>
    </g>
</svg>