<?xml version="1.0" encoding="UTF-8"?>
<svg width="15px" height="17px" viewBox="0 0 15 17" version="1.1" xmlns="http://www.w3.org/2000/svg" xmlns:xlink="http://www.w3.org/1999/xlink">
    <!-- Generator: Sketch 52.5 (67469) - http://www.bohemiancoding.com/sketch -->
    <title>ic_menu_logout_inactive</title>
    <desc>Created with Sketch.</desc>
    <g id="Page-1" stroke="none" stroke-width="1" fill="none" fill-rule="evenodd">
        <g id="25_Menu" transform="translate(-33.000000, -623.000000)" fill="#868686">
            <g id="Group-3" transform="translate(32.000000, 575.000000)">
                <g id="report" transform="translate(1.000000, 47.000000)">
                    <path d="M14.7791075,11.6007145 C14.4841742,11.6007145 14.2457742,11.8323582 14.2457742,12.1184149 L14.2457742,15.7459453 L0.379107545,15.7459453 L0.379107545,12.1184149 C0.379107545,11.8323582 0.140174212,11.6007145 -0.154225788,11.6007145 C-0.449159122,11.6007145 -0.687559122,11.8323582 -0.687559122,12.1184149 L-0.687559122,16.2641639 C-0.687559122,16.5507388 -0.449159122,16.7829007 -0.154225788,16.7829007 L14.7791075,16.7829007 C15.0735075,16.7829007 15.3124409,16.5507388 15.3124409,16.2641639 L15.3124409,12.1184149 C15.3124409,11.8323582 15.0735075,11.6007145 14.7791075,11.6007145 M4.49430755,7.19750077 L6.77910755,4.60744409 L6.77910755,12.5299704 C6.77910755,12.8160271 7.01750755,13.0476708 7.31244088,13.0476708 C7.60684088,13.0476708 7.84577421,12.8160271 7.84577421,12.5299704 L7.84577421,4.60744409 L10.1300409,7.19750077 C10.3407075,7.40219713 10.6809742,7.40219713 10.8911075,7.19750077 C11.1012409,6.99384085 11.1012409,6.66218093 10.8911075,6.45852102 L7.69430755,2.83358174 C7.68844088,2.82788134 7.67937421,2.83047243 7.67350755,2.82529025 C7.58284088,2.7434117 7.46390755,2.69262628 7.33110755,2.68796231 L7.32790755,2.68796231 C7.18390755,2.68278013 7.03990755,2.72734693 6.93004088,2.83358174 L3.73324088,6.45852102 C3.52310755,6.66218093 3.52310755,6.99384085 3.73324088,7.19750077 C3.94337421,7.40219713 4.28417421,7.40219713 4.49430755,7.19750077" id="ic_menu_logout_inactive" transform="translate(7.312441, 9.735230) rotate(90.000000) translate(-7.312441, -9.735230) "></path>
                </g>
            </g>
        </g>
    </g>
</svg>