<?xml version="1.0" encoding="UTF-8"?>
<svg width="24px" height="24px" viewBox="0 0 24 24" version="1.1" xmlns="http://www.w3.org/2000/svg" xmlns:xlink="http://www.w3.org/1999/xlink">
    <!-- Generator: Sketch 52.5 (67469) - http://www.bohemiancoding.com/sketch -->
    <title>ic_notification</title>
    <desc>Created with Sketch.</desc>
    <g id="Page-1" stroke="none" stroke-width="1" fill="none" fill-rule="evenodd">
        <g id="31_Settings_Profile" transform="translate(-32.000000, -622.000000)" fill="#323334" fill-rule="nonzero">
            <g id="device" transform="translate(16.000000, 566.000000)">
                <g id="Group-2" transform="translate(16.000000, 52.000000)">
                    <path d="M23.7818182,8.36363636 C23.7818182,5.95752727 21.8242909,4 19.4181818,4 C17.4680727,4 15.8133818,5.2864 15.2557091,7.05454545 L2.50254545,7.05454545 C1.2432,7.05454545 0.218181818,8.07956364 0.218181818,9.33890909 L0.218181818,25.7152 C0.218181818,26.9749818 1.2432,28 2.50254545,28 L18.8788364,28 C20.1386182,28 21.1632,26.9749818 21.1632,25.7156364 L21.1632,12.3602909 C22.7026909,11.6852364 23.7818182,10.1488 23.7818182,8.36363636 Z M20.2909091,25.7156364 C20.2909091,26.4941091 19.6577455,27.1272727 18.8792727,27.1272727 L2.50254545,27.1272727 C1.72407273,27.1272727 1.09090909,26.4941091 1.09090909,25.7156364 L1.09090909,9.33890909 C1.09090909,8.56043636 1.72407273,7.92727273 2.50254545,7.92727273 L15.0763636,7.92727273 C15.0624,8.07083636 15.0545455,8.21614545 15.0545455,8.36363636 C15.0545455,10.7697455 17.0120727,12.7272727 19.4181818,12.7272727 C19.7170909,12.7272727 20.0090182,12.6967273 20.2909091,12.6391273 L20.2909091,25.7156364 Z M20.5762909,11.6529455 C20.4898909,11.6834909 20.4026182,11.7096727 20.3149091,11.7336727 C20.2992,11.7380364 20.2830545,11.7419636 20.2673455,11.7458909 C20.1901091,11.7655273 20.1124364,11.7825455 20.0343273,11.7969455 C19.9941818,11.8043636 19.9531636,11.8096 19.9125818,11.8157091 C19.8541091,11.8244364 19.7952,11.8331636 19.7367273,11.8388364 C19.6315636,11.848 19.5255273,11.8545455 19.4181818,11.8545455 C17.4933818,11.8545455 15.9272727,10.2884364 15.9272727,8.36363636 C15.9272727,8.11054545 15.9573818,7.85003636 16.0171636,7.58821818 C16.3710545,6.03563636 17.76,4.87272727 19.4181818,4.87272727 C21.3429818,4.87272727 22.9090909,6.43883636 22.9090909,8.36363636 C22.9090909,9.88218182 21.9325091,11.1738182 20.5762909,11.6529455 Z" id="ic_notification"></path>
                </g>
            </g>
        </g>
    </g>
</svg>