<?xml version="1.0" encoding="UTF-8"?>
<svg width="26px" height="20px" viewBox="0 0 26 20" version="1.1" xmlns="http://www.w3.org/2000/svg" xmlns:xlink="http://www.w3.org/1999/xlink">
    <!-- Generator: Sketch 52.5 (67469) - http://www.bohemiancoding.com/sketch -->
    <title>ic_queen</title>
    <desc>Created with Sketch.</desc>
    <g id="Page-1" stroke="none" stroke-width="1" fill="none" fill-rule="evenodd">
        <g id="29_Profile_More" transform="translate(-55.000000, -222.000000)" fill="#FFFFFF" fill-rule="nonzero">
            <g id="btn_add" transform="translate(40.000000, 208.000000)">
                <path d="M18.4328,33.1012 C18.1566576,33.1012 17.9328,32.8773424 17.9328,32.6012 C17.9328,32.3250576 18.1566576,32.1012 18.4328,32.1012 L37.6328,32.1012 C37.9089424,32.1012 38.1328,32.3250576 38.1328,32.6012 C38.1328,32.8773424 37.9089424,33.1012 37.6328,33.1012 L18.4328,33.1012 Z M37.5972988,22.0703961 C37.6514249,21.7996102 37.914818,21.6239728 38.1856039,21.6780988 C38.4563898,21.7322249 38.6320272,21.995618 38.5779012,22.2664039 L36.4903012,32.7104039 C36.4361751,32.9811898 36.172782,33.1568272 35.9019961,33.1027012 C35.6312102,33.0485751 35.4555728,32.785182 35.5096988,32.5143961 L37.5972988,22.0703961 Z M36.9160273,21.3768659 C37.1112788,21.1815931 37.4278613,21.1815758 37.6231341,21.3768273 C37.8184069,21.5720788 37.8184242,21.8886613 37.6231727,22.0839341 L33.5756642,26.1318838 L27.6237117,19.3296523 C27.4418706,19.121834 27.4629294,18.8059527 27.6707477,18.6241117 C27.878566,18.4422706 28.1944473,18.4633294 28.3762883,18.6711477 L33.6243358,24.6689162 L36.9160273,21.3768659 Z M27.6237117,18.6711477 C27.8055527,18.4633294 28.121434,18.4422706 28.3292523,18.6241117 C28.5370706,18.8059527 28.5581294,19.121834 28.3762883,19.3296523 L22.4243358,26.1318838 L18.3776273,22.0847341 C18.1823758,21.8894613 18.1823931,21.5728788 18.3776659,21.3776273 C18.5729387,21.1823758 18.8895212,21.1823931 19.0847727,21.3776659 L22.3756642,24.6689162 L27.6237117,18.6711477 Z M20.4902947,32.5035637 L18.4106947,22.1031637 L17.4301053,22.2992363 L19.5097053,32.6996363 L20.4902947,32.5035637 Z M19.5097053,32.6996363 L20.4902947,32.5035637 L18.4106947,22.1031637 L17.4301053,22.2992363 L19.5097053,32.6996363 Z M28,18.5 C28.8284271,18.5 29.5,17.8284271 29.5,17 C29.5,16.1715729 28.8284271,15.5 28,15.5 C27.1715729,15.5 26.5,16.1715729 26.5,17 C26.5,17.8284271 27.1715729,18.5 28,18.5 Z M28,19.5 C26.6192881,19.5 25.5,18.3807119 25.5,17 C25.5,15.6192881 26.6192881,14.5 28,14.5 C29.3807119,14.5 30.5,15.6192881 30.5,17 C30.5,18.3807119 29.3807119,19.5 28,19.5 Z M17.6,21.6996 C18.2075132,21.6996 18.7,21.2071132 18.7,20.5996 C18.7,19.9920868 18.2075132,19.4996 17.6,19.4996 C16.9924868,19.4996 16.5,19.9920868 16.5,20.5996 C16.5,21.2071132 16.9924868,21.6996 17.6,21.6996 Z M17.6,22.6996 C16.440202,22.6996 15.5,21.759398 15.5,20.5996 C15.5,19.439802 16.440202,18.4996 17.6,18.4996 C18.759798,18.4996 19.7,19.439802 19.7,20.5996 C19.7,21.759398 18.759798,22.6996 17.6,22.6996 Z M38.4,21.6996 C39.0075132,21.6996 39.5,21.2071132 39.5,20.5996 C39.5,19.9920868 39.0075132,19.4996 38.4,19.4996 C37.7924868,19.4996 37.3,19.9920868 37.3,20.5996 C37.3,21.2071132 37.7924868,21.6996 38.4,21.6996 Z M38.4,22.6996 C37.240202,22.6996 36.3,21.759398 36.3,20.5996 C36.3,19.439802 37.240202,18.4996 38.4,18.4996 C39.559798,18.4996 40.5,19.439802 40.5,20.5996 C40.5,21.759398 39.559798,22.6996 38.4,22.6996 Z" id="ic_queen"></path>
            </g>
        </g>
    </g>
</svg>