<?xml version="1.0" encoding="UTF-8"?>
<svg width="26px" height="26px" viewBox="0 0 26 26" version="1.1" xmlns="http://www.w3.org/2000/svg" xmlns:xlink="http://www.w3.org/1999/xlink">
    <!-- Generator: Sketch 52.5 (67469) - http://www.bohemiancoding.com/sketch -->
    <title>ic_settings</title>
    <desc>Created with Sketch.</desc>
    <g id="Page-1" stroke="none" stroke-width="1" fill="none" fill-rule="evenodd">
        <g id="29_Profile_More" transform="translate(-334.000000, -53.000000)" fill="#323334" fill-rule="nonzero">
            <g id="Navigation-Bar---Hierarchical">
                <g id="right" transform="translate(315.000000, 44.000000)">
                    <path d="M45,21.2376 L44.9999981,22.7643336 C44.9976126,23.9980675 43.9980675,24.9976126 42.7723647,24.9999504 C42.6615901,25.0010542 42.5646613,25.0747045 42.5301101,25.1939844 C42.3211023,25.8827321 42.0445926,26.5491575 41.6980725,27.1955534 C41.6439732,27.2932711 41.6605327,27.4149258 41.7336047,27.4893935 C42.6045026,28.3634975 42.6045026,29.7773025 41.7316511,30.6533618 L40.6510065,31.7320047 C39.7769025,32.6029026 38.3630975,32.6029026 37.4942284,31.7371821 C37.4145258,31.6589327 37.2928711,31.6423732 37.1831565,31.7030076 C36.5487551,32.0429906 35.8823324,32.3194993 35.1810653,32.5322201 C35.0745559,32.5630285 35.0009155,32.6601178 34.9999981,32.7643342 C34.9976113,33.9983496 33.9976271,34.9980107 32.762,35 L31.2356664,34.9999981 C30.0019325,34.9976126 29.0023874,33.9980675 29.0000451,32.7719 C28.9989938,32.6612366 28.9255333,32.5643431 28.8080118,32.5301089 C28.1192676,32.3210993 27.4528449,32.0445906 26.8064466,31.6980725 C26.7087289,31.6439732 26.5870742,31.6605327 26.5126065,31.7336047 C25.6385025,32.6045026 24.2246975,32.6045026 23.3492932,31.7323068 L22.2679953,30.6510065 C21.3970974,29.7769025 21.3970974,28.3630975 22.2628179,27.4942284 C22.3410673,27.4145258 22.3576268,27.2928711 22.2969943,27.18316 C21.9570074,26.5487575 21.6804977,25.8823321 21.4677799,25.1810653 C21.4369715,25.0745559 21.3398822,25.0009155 21.2356658,24.9999981 C20.0016504,24.9976113 19.0019893,23.9976271 19,22.762 L19.0000019,21.2356664 C19.0023874,20.0019325 20.0019325,19.0023874 21.229703,19.0000312 C21.3405153,18.9991561 21.4376183,18.9256604 21.4718911,18.8080118 C21.6809007,18.1192676 21.9574094,17.4528449 22.3039275,16.8064466 C22.3580268,16.7087289 22.3414673,16.5870742 22.2683953,16.5126065 C21.3974974,15.6385025 21.3974974,14.2246975 22.2690382,13.3499489 L23.3489935,12.2679953 C24.2230975,11.3970974 25.6369025,11.3970974 26.5057716,12.2628179 C26.5854742,12.3410673 26.7071289,12.3576268 26.8168435,12.2969924 C27.4512449,11.9570094 28.1176676,11.6805007 28.8189347,11.4677799 C28.9254441,11.4369715 28.9990845,11.3398822 29.0000019,11.2356664 C29.0023874,10.0019325 30.0019325,9.00238744 31.2376,9 L32.7643336,9.00000187 C33.9980675,9.00238744 34.9976126,10.0019325 34.9999548,11.2280917 C35.0010091,11.3389704 35.0747494,11.4359971 35.1947882,11.4706911 C35.8835324,11.6797007 36.5499551,11.9562094 37.1963534,12.3027275 C37.2940711,12.3568268 37.4157258,12.3402673 37.4901935,12.2671953 C38.3642975,11.3962974 39.7781025,11.3962974 40.6541623,12.2691493 L41.7320047,13.3489935 C42.6029026,14.2230975 42.6029026,15.6369025 41.7371821,16.5057716 C41.6589327,16.5854742 41.6423732,16.7071289 41.7030076,16.8168435 C42.0429906,17.4512449 42.3194993,18.1176676 42.5322201,18.8189347 C42.562873,18.9249062 42.659139,18.99834 42.7693108,19.0000169 C44.0007547,19.0050768 44.9976158,20.0035945 45,21.2376 Z M42.7604664,20.9999981 L42.7538106,20.9999631 C41.7587963,20.9914163 40.8874701,20.3305313 40.6146911,19.3871882 C40.443914,18.8244308 40.2179849,18.2799117 39.9467275,17.7735534 C39.4639497,16.9015267 39.6117251,15.8158894 40.3151953,15.0993935 C40.4085058,15.0057396 40.4085058,14.8542604 40.3158377,14.7612507 L39.2405935,13.6840047 C39.1469396,13.5906942 38.9954604,13.5906942 38.8965716,13.6891821 C38.1853106,14.3874749 37.0996733,14.5352503 36.2396435,14.0590076 C35.7212883,13.7812151 35.1767692,13.555286 34.6275024,13.3884994 C33.6712878,13.1129519 33.0095072,12.2421879 33.0000019,11.2395336 C32.9997463,11.1073478 32.8926522,11.0002537 32.7624,11 L31.2395336,10.9999981 C31.1073478,11.0002537 31.0002537,11.1073478 30.9999631,11.2461894 C30.9914163,12.2412037 30.3305313,13.1125299 29.3871882,13.3853089 C28.8244308,13.556086 28.2799117,13.7820151 27.7735534,14.0532725 C26.9015267,14.5360503 25.8158894,14.3882749 25.0993935,13.6848047 C25.0057396,13.5914942 24.8542604,13.5914942 24.7625618,13.6828511 L23.6852047,14.7622065 C23.5918942,14.8558604 23.5918942,15.0073396 23.6903821,15.1062284 C24.3886749,15.8174894 24.5364503,16.9031267 24.0602076,17.7631565 C23.7824151,18.2815117 23.556486,18.8260308 23.3890475,19.3775501 C23.1114288,20.3325293 22.2399796,20.9921152 21.2395336,20.9999981 C21.1073478,21.0002537 21.0002537,21.1073478 21,21.2376 L20.9999987,22.760389 C21.0002117,22.892605 21.1073183,22.9997461 21.2461894,23.0000369 C22.2412037,23.0085837 23.1125299,23.6694687 23.3853101,24.6128156 C23.5560842,25.1755713 23.7820123,25.7200881 24.0532725,26.2264466 C24.5360503,27.0984733 24.3882749,28.1841106 23.6848047,28.9006065 C23.5914942,28.9942604 23.5914942,29.1457396 23.6835068,29.2380932 L24.7622065,30.3167953 C24.8558604,30.4101058 25.0073396,30.4101058 25.1062284,30.3116179 C25.8174894,29.6133251 26.9031267,29.4655497 27.7631565,29.9417924 C28.2815117,30.2195849 28.8260308,30.445514 29.3775362,30.6129485 C30.3312494,30.8901841 30.9905196,31.7597537 30.9999981,32.7604664 C31.0002537,32.8926522 31.1073478,32.9997463 31.2376,33 L32.760389,33.0000013 C32.892605,32.9997883 32.9997461,32.8926817 33.0000369,32.7538106 C33.0085837,31.7587963 33.6694687,30.8874701 34.6128118,30.6146911 C35.1755692,30.443914 35.7200883,30.2179849 36.2264466,29.9467275 C37.0984733,29.4639497 38.1841106,29.6117251 38.9006065,30.3151953 C38.9942604,30.4085058 39.1457396,30.4085058 39.2387489,30.3158382 L40.3167953,29.2397935 C40.4101058,29.1461396 40.4101058,28.9946604 40.3116179,28.8957716 C39.6133251,28.1845106 39.4655497,27.0988733 39.9417943,26.23884 C40.2195877,25.7204881 40.4455158,25.1759713 40.6124838,24.6260673 C40.8884052,23.670929 41.7582906,23.0099565 42.7604664,23.0000019 C42.8926522,22.9997463 42.9997463,22.8926522 43,22.7624 L43.0000019,21.2395336 C42.9997463,21.1073478 42.8926522,21.0002537 42.7604664,20.9999981 Z M32,28.6 C28.3549207,28.6 25.4,25.6450793 25.4,22 C25.4,18.3549207 28.3549207,15.4 32,15.4 C35.6450793,15.4 38.6,18.3549207 38.6,22 C38.6,25.6450793 35.6450793,28.6 32,28.6 Z M32,26.6 C34.5405098,26.6 36.6,24.5405098 36.6,22 C36.6,19.4594902 34.5405098,17.4 32,17.4 C29.4594902,17.4 27.4,19.4594902 27.4,22 C27.4,24.5405098 29.4594902,26.6 32,26.6 Z" id="ic_settings"></path>
                </g>
            </g>
        </g>
    </g>
</svg>