<?xml version="1.0" encoding="UTF-8"?>
<svg width="48px" height="36px" viewBox="0 0 48 36" version="1.1" xmlns="http://www.w3.org/2000/svg" xmlns:xlink="http://www.w3.org/1999/xlink">
    <!-- Generator: Sketch 52.5 (67469) - http://www.bohemiancoding.com/sketch -->
    <title>ic_scan</title>
    <desc>Created with Sketch.</desc>
    <g id="Page-1" stroke="none" stroke-width="1" fill="none" fill-rule="evenodd">
        <g id="26_Add-Card-or-Bank" transform="translate(-164.000000, -600.000000)" fill="#3E82FE" fill-rule="nonzero">
            <g id="scan_card" transform="translate(152.000000, 600.000000)">
                <path d="M56,0 C58.2050765,0 60,1.79389224 60,4 L60,6.99997656 C60,7.55272224 59.5527222,8 58.9999766,8 C58.4472309,8 57.9999531,7.55272224 57.9999531,6.99997656 L57.9999531,4 C57.9999531,2.89750861 57.1035226,2.00004687 56,2.00004687 L53.0000234,2.00004687 C52.4472778,2.00004687 52,1.55276912 52,1.00002344 C52,0.447277756 52.4472778,0 53.0000234,0 L56,0 Z M13.0000234,8 C12.4472778,8 12,7.55281075 12,7.00005859 L12,4.00004688 C12,1.79391326 13.7949235,0 16,0 L18.9999766,0 C19.5527222,0 19.9999063,0.447282997 20,0.999941406 C20,1.55269357 19.5527222,1.99997656 18.9999766,1.99997656 L16,1.99997656 C14.8965711,1.99997656 14.0000469,2.89744882 14.0000469,3.99995312 L14.0000469,6.99996484 C14.0000469,7.552717 13.5527691,8 13.0000234,8 Z M58.986386,28 C59.5380585,28 59.9844678,28.4464094 59.9844678,28.9979883 L59.9844678,31.9921404 C59.9844678,34.1939649 58.1930292,35.9843743 55.9922339,35.9844678 L52.9980819,35.9844678 C52.4464094,35.9844678 52,35.5380585 52,34.986386 C52,34.4347135 52.4464094,33.9883041 52.9980819,33.9883041 L55.9922339,33.9883041 C57.0935205,33.9883041 57.9883041,33.0925848 57.9883041,31.9922339 L57.9883041,28.9980819 C57.9883041,28.4464094 58.4347135,28 58.986386,28 Z M18.9999766,34.0000234 C19.5527222,34.0000234 19.9999063,34.4473064 20,34.9999648 C20,35.552717 19.5527222,36 18.9999766,36 L16,36 C13.7949235,36 12,34.2060867 12,31.9999531 L12,28.9999414 C12,28.447283 12.4472778,28 13.0000234,28 C13.5527691,28 14.0000469,28.447283 14.0000469,29.0000352 L14.0000469,32.0000469 C14.0000469,33.1025512 14.8964774,34.0000234 16,34.0000234 L18.9999766,34.0000234 Z M58.9083509,15.9688421 C59.4600234,15.9688421 59.9064327,16.4152515 59.9065263,16.9668304 C59.9065263,17.5185029 59.460117,17.9649123 58.9084444,17.9649123 L12.9980819,17.9649123 C12.4464094,17.9649123 12,17.5185029 12,16.9668304 C12,16.4152515 12.4464094,15.9688421 12.9980819,15.9688421 L58.9083509,15.9688421 Z" id="ic_scan"></path>
            </g>
        </g>
    </g>
</svg>