<?xml version="1.0" encoding="UTF-8"?>
<svg width="16px" height="16px" viewBox="0 0 16 16" version="1.1" xmlns="http://www.w3.org/2000/svg" xmlns:xlink="http://www.w3.org/1999/xlink">
    <!-- Generator: Sketch 52.5 (67469) - http://www.bohemiancoding.com/sketch -->
    <title>ic_search</title>
    <desc>Created with Sketch.</desc>
    <g id="Page-1" stroke="none" stroke-width="1" fill="none" fill-rule="evenodd" opacity="0.400000006">
        <g id="10_Choose_Currency" transform="translate(-28.000000, -114.000000)" fill="#7B7B7B">
            <g id="search" transform="translate(16.000000, 102.000000)">
                <path d="M18.5015238,24.0028132 C15.4633117,24.0028132 13.0002344,21.5397359 13.0002344,18.4990232 C13.0002344,15.4633117 15.4633117,12.9979839 18.5015238,12.9979839 C21.5397359,12.9979839 24.0028132,15.4633117 24.0028132,18.4990232 C24.0028132,21.5397359 21.5397359,24.0028132 18.5015238,24.0028132 Z M27.8612175,27.1860592 L23.4026725,22.7275143 C24.3879034,21.5899977 25.0030476,20.1246542 25.0030476,18.4990232 C25.0030476,14.9081816 22.0923654,12 18.5015238,12 C14.9106822,12 12,14.9081816 12,18.4990232 C12,22.0901149 14.9106822,25.0007971 18.5015238,25.0007971 C20.1244042,25.0007971 21.5897476,24.3854028 22.7300148,23.4029226 L27.1885598,27.8587169 C27.3736032,28.0462608 27.6736735,28.0462608 27.8612175,27.8587169 C28.0462608,27.6739236 28.0462608,27.3713527 27.8612175,27.1860592 Z" id="ic_search"></path>
            </g>
        </g>
    </g>
</svg>