<?xml version="1.0" encoding="UTF-8"?>
<svg width="24px" height="24px" viewBox="0 0 24 24" version="1.1" xmlns="http://www.w3.org/2000/svg" xmlns:xlink="http://www.w3.org/1999/xlink">
    <!-- Generator: Sketch 52.5 (67469) - http://www.bohemiancoding.com/sketch -->
    <title>ic_tab_wallet_inactive</title>
    <desc>Created with Sketch.</desc>
    <g id="Page-1" stroke="none" stroke-width="1" fill="none" fill-rule="evenodd">
        <g id="38_Home_by_Category" transform="translate(-68.000000, -749.000000)" fill="#7B7B7B" fill-rule="nonzero">
            <g id="toolbar" transform="translate(0.000000, 726.000000)">
                <path d="M90.8766468,35.0836903 L90.8766468,31.7152648 C90.8766468,30.573069 89.9906894,29.6441669 88.8713191,29.5540903 L85.7431489,24.0902605 C85.4532596,23.5849328 84.9851574,23.2237584 84.4250383,23.0737839 C83.8675745,22.9248307 83.2846298,23.0030605 82.7856851,23.2934605 L72.0621277,29.5365243 L70.1787404,29.5365243 C68.9771574,29.5365243 68,30.5136307 68,31.7152648 L68,44.7876052 C68,45.9891882 68.9771064,46.9663456 70.1787404,46.9663456 L88.6979064,46.9663456 C89.8994894,46.9663456 90.8766468,45.9892392 90.8766468,44.7876052 L90.8766468,41.4191797 C91.5092766,41.1935797 91.9659915,40.594652 91.9659915,39.8854775 L91.9659915,36.6173924 C91.9659915,35.908218 91.5092766,35.3092903 90.8766468,35.0836903 Z M87.6054979,29.5365243 L82.8580426,29.5365243 L86.4186723,27.4635371 L87.6054979,29.5365243 Z M85.8774468,26.5181924 L80.6929872,29.5365243 L78.5425362,29.5365243 L85.3397447,25.5790775 L85.8774468,26.5181924 Z M83.3340596,24.2349243 C83.5803404,24.0907711 83.8680851,24.0524733 84.1431149,24.1259031 C84.4213106,24.2003541 84.6532426,24.3801499 84.7973957,24.6317414 L84.7985191,24.6337328 L76.377583,29.5365243 L74.227234,29.5365243 L83.3340596,24.2349243 Z M89.7872511,44.7876052 C89.7872511,45.3881158 89.298417,45.8769499 88.6979064,45.8769499 L70.1787404,45.8769499 C69.5782298,45.8769499 69.0893957,45.3881158 69.0893957,44.7876052 L69.0893957,31.7152648 C69.0893957,31.1147541 69.5782298,30.6259201 70.1787404,30.6259201 L88.6979064,30.6259201 C89.298417,30.6259201 89.7872511,31.1147541 89.7872511,31.7152648 L89.7872511,34.9833499 L86.519166,34.9833499 C84.7170213,34.9833499 83.2510809,36.4492903 83.2510809,38.251435 C83.2510809,40.0535797 84.7170213,41.5195201 86.519166,41.5195201 L89.7872511,41.5195201 L89.7872511,44.7876052 Z M90.8766468,39.8854775 C90.8766468,40.1859882 90.6325106,40.4301754 90.3319489,40.4301754 L86.519166,40.4301754 C85.317583,40.4301754 84.3404255,39.453069 84.3404255,38.251435 C84.3404255,37.049852 85.3175319,36.0726945 86.519166,36.0726945 L90.3319489,36.0726945 C90.6324596,36.0726945 90.8766468,36.3168307 90.8766468,36.6173924 L90.8766468,39.8854775 Z" id="ic_tab_wallet_inactive"></path>
            </g>
        </g>
    </g>
</svg>