<?xml version="1.0" encoding="UTF-8"?>
<svg width="28px" height="24px" viewBox="0 0 28 24" version="1.1" xmlns="http://www.w3.org/2000/svg" xmlns:xlink="http://www.w3.org/1999/xlink">
    <!-- Generator: Sketch 52.5 (67469) - http://www.bohemiancoding.com/sketch -->
    <title>ic_tab_chart_active</title>
    <desc>Created with Sketch.</desc>
    <g id="Page-1" stroke="none" stroke-width="1" fill="none" fill-rule="evenodd">
        <g id="38_Home_by_Category" transform="translate(-282.000000, -749.000000)" fill="#3E82FE" fill-rule="nonzero">
            <g id="toolbar" transform="translate(0.000000, 726.000000)">
                <path d="M308.75183,23 C309.424511,23 309.971745,23.547234 309.97166,24.2199149 C309.97166,24.8925106 309.424426,25.4397447 308.751745,25.4397447 C308.646468,25.4397447 308.544936,25.4249362 308.447404,25.3997447 L304.689617,30.7858723 C304.80034,30.9694468 304.865277,31.1835745 304.865277,31.4131064 C304.865277,32.0857021 304.318043,32.6329362 303.645362,32.6329362 C302.972681,32.6329362 302.425447,32.0857021 302.425447,31.4131064 C302.425447,31.3394894 302.433106,31.2676596 302.445702,31.1975319 L299.253362,28.892 C299.052255,29.0379574 298.805872,29.1251064 298.538979,29.1251064 C298.28783,29.1251064 298.054298,29.0486809 297.860085,28.9181277 L294.545617,31.496 C294.613787,31.648 294.652511,31.8158298 294.652511,31.9928511 C294.652511,32.6655319 294.105277,33.212766 293.432596,33.212766 C293.066723,33.212766 292.738894,33.0501277 292.515149,32.7942128 L289.534128,34.3840851 C289.541277,34.4372766 289.546213,34.4910638 289.546213,34.5460426 C289.546213,35.2187234 288.998979,35.7659574 288.326298,35.7659574 C287.737447,35.7659574 287.244681,35.3466383 287.131064,34.7908085 L284.283234,34.3478298 C284.073957,34.7196596 283.676085,34.9716596 283.219915,34.9716596 C282.547234,34.9716596 282,34.4244255 282,33.7518298 C282,33.0791489 282.547234,32.5319149 283.21983,32.5319149 C283.808681,32.5319149 284.301447,32.951234 284.415064,33.5070638 L287.262894,33.9500426 C287.47217,33.5782979 287.870043,33.3262979 288.326213,33.3262979 C288.635574,33.3262979 288.917617,33.4430638 289.132936,33.6335319 L292.212766,31.9909787 C292.213872,31.3193191 292.760596,30.7731064 293.432596,30.7731064 C293.615064,30.7731064 293.787574,30.8144681 293.943149,30.8865532 L297.363404,28.226383 C297.335404,28.1239149 297.319149,28.0165957 297.319149,27.9052766 C297.319149,27.2325957 297.866383,26.6854468 298.539064,26.6854468 C299.211745,26.6854468 299.758979,27.2326809 299.758979,27.9052766 C299.758979,28.0011064 299.746809,28.0938723 299.725787,28.1834043 L302.882213,30.4629787 C303.091404,30.2946383 303.356596,30.1932766 303.645447,30.1932766 C303.777277,30.1932766 303.904085,30.2149787 304.023234,30.2538723 L307.749277,24.9131915 C307.612596,24.7160851 307.531915,24.4773617 307.531915,24.2199149 C307.531915,23.547234 308.079149,23 308.75183,23 Z M283.645447,38.9433191 C283.880426,38.9433191 284.070979,39.1338723 284.070979,39.3688511 L284.070979,45.6667234 C284.070979,45.9017021 283.880426,46.0922553 283.645447,46.0922553 L282.794383,46.0922553 C282.559404,46.0922553 282.368851,45.9017021 282.368851,45.6667234 L282.368851,39.3688511 C282.368851,39.1338723 282.559404,38.9433191 282.794383,38.9433191 L283.645447,38.9433191 Z M288.75183,38.9433191 C288.986809,38.9433191 289.177362,39.1338723 289.177362,39.3688511 L289.177362,45.6667234 C289.177362,45.9017021 288.986809,46.0922553 288.75183,46.0922553 L287.900766,46.0922553 C287.665787,46.0922553 287.475234,45.9017021 287.475234,45.6667234 L287.475234,39.3688511 C287.475234,39.1338723 287.665787,38.9433191 287.900766,38.9433191 L288.75183,38.9433191 Z M293.858213,34.3475745 C294.093191,34.3475745 294.283745,34.5381277 294.283745,34.7731064 L294.283745,45.6667234 C294.283745,45.9017021 294.093191,46.0922553 293.858213,46.0922553 L293.007149,46.0922553 C292.77217,46.0922553 292.581617,45.9017021 292.581617,45.6667234 L292.581617,34.7731064 C292.581617,34.5381277 292.77217,34.3475745 293.007149,34.3475745 L293.858213,34.3475745 Z M298.964596,30.7731064 C299.199574,30.7731064 299.390128,30.9636596 299.390128,31.1986383 L299.390128,45.6667234 C299.390128,45.9017021 299.199574,46.0922553 298.964596,46.0922553 L298.113532,46.0922553 C297.878553,46.0922553 297.688,45.9017021 297.688,45.6667234 L297.688,31.1986383 C297.688,30.9636596 297.878553,30.7731064 298.113532,30.7731064 L298.964596,30.7731064 Z M304.070979,34.3475745 C304.305957,34.3475745 304.496511,34.5381277 304.496511,34.7731064 L304.496511,45.6667234 C304.496511,45.9017021 304.305957,46.0922553 304.070979,46.0922553 L303.219915,46.0922553 C302.984936,46.0922553 302.794383,45.9017021 302.794383,45.6667234 L302.794383,34.7731064 C302.794383,34.5381277 302.984936,34.3475745 303.219915,34.3475745 L304.070979,34.3475745 Z M309.177362,28.7305532 C309.41234,28.7305532 309.602894,28.9211064 309.602894,29.1560851 L309.602894,45.6667234 C309.602894,45.9017021 309.41234,46.0922553 309.177362,46.0922553 L308.326298,46.0922553 C308.091319,46.0922553 307.900766,45.9017021 307.900766,45.6667234 L307.900766,29.1560851 C307.900766,28.9211064 308.091319,28.7305532 308.326298,28.7305532 L309.177362,28.7305532 Z" id="ic_tab_chart_active"></path>
            </g>
        </g>
    </g>
</svg>