<?xml version="1.0" encoding="UTF-8"?>
<svg width="13px" height="16px" viewBox="0 0 13 16" version="1.1" xmlns="http://www.w3.org/2000/svg" xmlns:xlink="http://www.w3.org/1999/xlink">
    <!-- Generator: Sketch 52.5 (67469) - http://www.bohemiancoding.com/sketch -->
    <title>ic_user</title>
    <desc>Created with Sketch.</desc>
    <g id="Page-1" stroke="none" stroke-width="1" fill="none" fill-rule="evenodd">
        <g id="31_Settings_Profile" transform="translate(-38.000000, -288.000000)" fill="#000000" fill-rule="nonzero">
            <g id="infomation" transform="translate(16.000000, 268.000000)">
                <path d="M33.9166667,34.9338667 C33.9166667,31.9882667 31.4910833,29.6005333 28.5,29.6005333 C25.508375,29.6005333 23.0833333,31.9882667 23.0833333,34.9338667 L23.0833333,36 L22,36 L22,34.9338667 C22,32.2293333 23.70625,29.9210667 26.1150417,28.9845333 C24.6297917,28.1616 23.625,26.5973333 23.625,24.8005333 C23.625,22.1493333 25.807375,20 28.5,20 C31.1920833,20 33.375,22.1493333 33.375,24.8005333 C33.375,26.5973333 32.3702083,28.1616 30.8849583,28.9845333 C33.2932083,29.9210667 35,32.2293333 35,34.9338667 L35,36 L33.9166667,36 L33.9166667,34.9338667 Z M32.2916667,24.8005333 C32.2916667,22.7386667 30.5940833,21.0672 28.5,21.0672 C26.4059167,21.0672 24.7083333,22.7386667 24.7083333,24.8005333 C24.7083333,26.8618667 26.4059167,28.5338667 28.5,28.5338667 C30.5940833,28.5338667 32.2916667,26.8618667 32.2916667,24.8005333 Z" id="ic_user"></path>
            </g>
        </g>
    </g>
</svg>